<svg xmlns="http://www.w3.org/2000/svg" width="1000" height="384" viewBox="0 0 1000 384" fill="none"><defs>
<filter id="b10" x="-30%" y="-30%" width="160%" height="160%"><feGaussianBlur stdDeviation="10"/></filter>
<filter id="b18" x="-30%" y="-30%" width="160%" height="160%"><feGaussianBlur stdDeviation="18"/></filter>
<filter id="b50" x="-50%" y="-80%" width="200%" height="260%"><feGaussianBlur stdDeviation="50"/></filter>
<linearGradient id="beam" x1="0" y1="0" x2="0" y2="1">
  <stop offset="0" stop-color="#7b6dff" stop-opacity="0.9"/>
  <stop offset="0.6" stop-color="#5b4fe0" stop-opacity="0.25"/>
  <stop offset="1" stop-color="#5b4fe0" stop-opacity="0"/>
</linearGradient>
<linearGradient id="card" x1="0" y1="0" x2="0" y2="1">
  <stop offset="0" stop-color="#ffffff" stop-opacity="0.07"/>
  <stop offset="0.55" stop-color="#8f86ff" stop-opacity="0.05"/>
  <stop offset="1" stop-color="#6c63ff" stop-opacity="0.24"/>
</linearGradient>
<linearGradient id="edge" x1="0" y1="0" x2="1" y2="1">
  <stop offset="0" stop-color="#ffffff" stop-opacity="0.38"/>
  <stop offset="0.5" stop-color="#8f86ff" stop-opacity="0.10"/>
  <stop offset="1" stop-color="#8f86ff" stop-opacity="0.38"/>
</linearGradient>
<linearGradient id="hl" x1="0" y1="0" x2="1" y2="0">
  <stop offset="0" stop-color="#fff" stop-opacity="0"/>
  <stop offset="0.5" stop-color="#fff" stop-opacity="0.5"/>
  <stop offset="1" stop-color="#fff" stop-opacity="0"/>
</linearGradient>
<linearGradient id="ln" x1="0" y1="0" x2="1" y2="0">
  <stop offset="0" stop-color="#8f86ff" stop-opacity="0"/>
  <stop offset="1" stop-color="#8f86ff" stop-opacity="0.8"/>
</linearGradient>
<linearGradient id="lnr" x1="0" y1="0" x2="1" y2="0">
  <stop offset="0" stop-color="#8f86ff" stop-opacity="0.8"/>
  <stop offset="1" stop-color="#8f86ff" stop-opacity="0"/>
</linearGradient>
<clipPath id="clip"><rect width="1000" height="384" rx="24"/></clipPath></defs><g clip-path="url(#clip)"><rect width="1000" height="384" fill="#04050c"/><ellipse cx="500" cy="128" rx="250" ry="76" fill="#5b4fe0" opacity="0.30" filter="url(#b50)"/><polygon points="-30,-10 170,-10 560,394 380,394" fill="url(#beam)" opacity="0.55" filter="url(#b18)"/><polygon points="1030,-10 830,-10 440,394 620,394" fill="url(#beam)" opacity="0.55" filter="url(#b18)"/><rect x="14" y="14" width="972" height="356" rx="20" stroke="#6c63ff" stroke-opacity="0.25" fill="none"/><rect x="40" y="76" width="920" height="1" fill="#ffffff" opacity="0.08"/><g opacity="1"><path d="M52 35 L63 46 L52 57 L41 46 Z" stroke="#8f86ff" stroke-width="2" stroke-linejoin="round"/><circle cx="52" cy="46" r="3.08" fill="#8f86ff"/><circle cx="52" cy="46" r="15.95" stroke="#8f86ff" stroke-opacity="0.35"/></g><path d="M76.25 51 78.79 46.86 76.36 42.86H78.62L80.26 45.72H80.48L82.03 42.86H84.16L81.91 46.78L84.64 51H82.38L80.44 47.92H80.22L78.39 51ZM89.89 51.28Q88.44 51.28 87.44 50.82Q86.44 50.35 85.92 49.54Q85.39 48.72 85.39 47.69H87.48Q87.48 48.12 87.72 48.53Q87.96 48.95 88.49 49.2Q89.02 49.45 89.89 49.45Q90.67 49.45 91.2 49.23Q91.72 49.01 91.98 48.64Q92.23 48.27 92.23 47.8Q92.23 47.22 91.74 46.87Q91.24 46.52 90.21 46.42L89.25 46.35Q87.67 46.22 86.73 45.37Q85.8 44.52 85.8 43.12Q85.8 42.08 86.29 41.32Q86.79 40.56 87.68 40.15Q88.57 39.73 89.77 39.73Q91.02 39.73 91.92 40.17Q92.82 40.61 93.31 41.39Q93.81 42.18 93.81 43.24H91.72Q91.72 42.8 91.5 42.41Q91.29 42.03 90.86 41.8Q90.43 41.56 89.77 41.56Q89.14 41.56 88.72 41.77Q88.3 41.98 88.09 42.34Q87.88 42.7 87.88 43.12Q87.88 43.63 88.26 44.02Q88.63 44.4 89.44 44.46L90.4 44.55Q91.57 44.64 92.46 45.05Q93.34 45.45 93.83 46.14Q94.32 46.83 94.32 47.8Q94.32 48.84 93.78 49.63Q93.24 50.41 92.24 50.85Q91.24 51.28 89.89 51.28ZM96.1 54V42.86H97.75V44.88Q97.86 44.55 98.02 44.27Q98.47 43.42 99.23 43.01Q100 42.6 100.95 42.6Q101.82 42.6 102.51 42.92Q103.21 43.23 103.71 43.8Q104.22 44.37 104.49 45.13Q104.76 45.88 104.76 46.76V47.07Q104.76 47.95 104.49 48.71Q104.23 49.47 103.73 50.05Q103.23 50.62 102.52 50.95Q101.82 51.27 100.95 51.27Q100.03 51.27 99.28 50.88Q98.62 50.56 98.19 49.92V54ZM100.42 49.52Q101.09 49.52 101.6 49.19Q102.1 48.85 102.39 48.26Q102.67 47.67 102.67 46.92Q102.67 46.14 102.39 45.57Q102.1 45 101.6 44.68Q101.09 44.36 100.42 44.36Q99.81 44.36 99.29 44.62Q98.77 44.9 98.45 45.42Q98.12 45.95 98.12 46.68V47.28Q98.12 47.98 98.46 48.48Q98.79 48.98 99.31 49.25Q99.84 49.52 100.42 49.52ZM106.98 51V44.41H105.84V42.86H109.06V51ZM107.74 41.88Q107.12 41.88 106.83 41.56Q106.54 41.23 106.54 40.74Q106.54 40.25 106.83 39.93Q107.12 39.62 107.74 39.62Q108.36 39.62 108.64 39.93Q108.93 40.25 108.93 40.74Q108.93 41.23 108.64 41.56Q108.36 41.88 107.74 41.88ZM111.46 51V42.86H113.11V45.49Q113.25 44.33 113.82 43.65Q114.57 42.75 116.02 42.75H116.32V44.56H115.75Q114.7 44.56 114.12 45.13Q113.55 45.69 113.55 46.76V51ZM118.11 51V44.41H116.97V42.86H120.19V51ZM118.87 41.88Q118.25 41.88 117.96 41.56Q117.67 41.23 117.67 40.74Q117.67 40.25 117.96 39.93Q118.25 39.62 118.87 39.62Q119.48 39.62 119.77 39.93Q120.06 40.25 120.06 40.74Q120.06 41.23 119.77 41.56Q119.48 41.88 118.87 41.88ZM126.13 51.1Q125 51.1 124.28 50.81Q123.55 50.52 123.19 49.82Q122.83 49.12 122.83 47.94V44.38H121.54V42.86H122.84V40.56H124.8V42.86H127.3V44.38H124.78V48.08Q124.78 48.67 125.1 49Q125.42 49.32 126.03 49.32H127.3V51.1ZM133.56 51.28Q132.27 51.28 131.37 50.86Q130.47 50.43 129.9 49.69Q129.33 48.95 129.06 47.98Q128.8 47.01 128.8 45.95V45.11Q128.8 43.59 129.31 42.38Q129.82 41.16 130.87 40.45Q131.92 39.73 133.56 39.73Q135.18 39.73 136.23 40.45Q137.28 41.16 137.78 42.38Q138.28 43.59 138.28 45.11V45.95Q138.28 47.01 138.02 47.98Q137.75 48.95 137.19 49.69Q136.63 50.43 135.73 50.86Q134.83 51.28 133.56 51.28ZM133.56 49.34Q134.89 49.34 135.52 48.41Q136.15 47.49 136.15 45.54Q136.15 43.47 135.5 42.58Q134.86 41.69 133.56 41.69Q132.24 41.69 131.58 42.58Q130.93 43.47 130.93 45.51Q130.93 47.48 131.57 48.41Q132.22 49.34 133.56 49.34Z" fill="#f4f5ff" opacity="1"/><path d="M357.84 51 361.21 41.54H362.99L366.41 51H364.85L363.98 48.51H360.26L359.41 51ZM363.55 47.3 363.01 45.74Q362.79 45.1 362.54 44.23Q362.33 43.55 362.09 42.68Q361.85 43.57 361.65 44.25Q361.39 45.13 361.2 45.74L360.67 47.3ZM371.2 51.14Q370.56 51.14 370.15 50.92Q369.74 50.7 369.51 50.41Q369.28 50.12 369.15 49.89H369.04V51H367.68V41.54H369.07V45.06H369.15Q369.28 44.84 369.5 44.54Q369.73 44.25 370.13 44.03Q370.53 43.81 371.2 43.81Q372.05 43.81 372.72 44.25Q373.39 44.68 373.78 45.5Q374.16 46.32 374.16 47.47Q374.16 48.61 373.78 49.44Q373.4 50.26 372.73 50.7Q372.06 51.14 371.2 51.14ZM370.89 49.95Q371.5 49.95 371.91 49.62Q372.32 49.29 372.53 48.73Q372.74 48.16 372.74 47.46Q372.74 46.76 372.53 46.2Q372.32 45.65 371.91 45.33Q371.5 45 370.89 45Q370.29 45 369.88 45.31Q369.47 45.62 369.26 46.17Q369.05 46.72 369.05 47.46Q369.05 48.19 369.26 48.76Q369.47 49.32 369.89 49.64Q370.3 49.95 370.89 49.95ZM378.7 51.15Q377.7 51.15 376.95 50.69Q376.21 50.23 375.8 49.41Q375.38 48.58 375.38 47.49Q375.38 46.39 375.8 45.56Q376.21 44.73 376.95 44.27Q377.7 43.81 378.7 43.81Q379.7 43.81 380.45 44.27Q381.19 44.73 381.6 45.56Q382.02 46.39 382.02 47.49Q382.02 48.58 381.6 49.41Q381.19 50.23 380.45 50.69Q379.7 51.15 378.7 51.15ZM378.7 49.97Q379.34 49.97 379.77 49.63Q380.19 49.29 380.39 48.72Q380.6 48.16 380.6 47.49Q380.6 46.81 380.39 46.24Q380.19 45.67 379.77 45.33Q379.34 45 378.7 45Q378.06 45 377.64 45.33Q377.22 45.67 377.01 46.24Q376.8 46.8 376.8 47.49Q376.8 48.16 377.01 48.72Q377.22 49.29 377.64 49.63Q378.06 49.97 378.7 49.97ZM385.98 51.09Q385.26 51.09 384.71 50.78Q384.17 50.48 383.87 49.88Q383.57 49.29 383.57 48.41V43.9H384.96V48.24Q384.96 49.01 385.36 49.44Q385.77 49.87 386.46 49.87Q386.94 49.87 387.31 49.66Q387.68 49.46 387.89 49.06Q388.11 48.66 388.11 48.11V43.9H389.51V51H388.17L388.17 49.62Q387.88 50.31 387.39 50.66Q386.8 51.09 385.98 51.09ZM394.42 43.9V45.04H393V49.08Q393 49.51 393.19 49.71Q393.37 49.91 393.78 49.91Q393.89 49.91 394.06 49.88Q394.24 49.86 394.37 49.83L394.62 50.95Q394.39 51.03 394.14 51.06Q393.89 51.1 393.64 51.1Q392.67 51.1 392.14 50.6Q391.61 50.1 391.61 49.2V45.04H390.57V43.9H391.61V42.21H393V43.9Z" fill="#8f86ff" opacity="1"/><path d="M433.85 51.13Q432.62 51.13 431.66 50.55Q430.69 49.97 430.14 48.88Q429.59 47.79 429.59 46.28Q429.59 44.76 430.14 43.67Q430.69 42.58 431.66 42Q432.62 41.42 433.85 41.42Q434.6 41.42 435.25 41.63Q435.91 41.85 436.43 42.26Q436.94 42.67 437.28 43.26Q437.62 43.85 437.74 44.6H436.29Q436.2 44.15 435.98 43.8Q435.75 43.46 435.43 43.22Q435.1 42.98 434.7 42.86Q434.3 42.74 433.86 42.74Q433.05 42.74 432.4 43.14Q431.76 43.55 431.39 44.34Q431.02 45.13 431.02 46.28Q431.02 47.42 431.4 48.21Q431.77 49 432.41 49.4Q433.05 49.81 433.86 49.81Q434.3 49.81 434.7 49.68Q435.1 49.56 435.42 49.32Q435.75 49.08 435.98 48.73Q436.2 48.38 436.29 47.94H437.75Q437.64 48.64 437.31 49.22Q436.98 49.8 436.47 50.23Q435.95 50.66 435.29 50.9Q434.63 51.13 433.85 51.13ZM441.76 51.09Q441.04 51.09 440.49 50.78Q439.95 50.48 439.65 49.88Q439.34 49.29 439.34 48.41V43.9H440.74V48.24Q440.74 49.01 441.14 49.44Q441.55 49.87 442.24 49.87Q442.71 49.87 443.09 49.66Q443.46 49.46 443.67 49.06Q443.89 48.66 443.89 48.11V43.9H445.29V51H443.95L443.95 49.62Q443.65 50.31 443.17 50.66Q442.57 51.09 441.76 51.09ZM447.16 51V43.9H448.52V45.05H448.59Q448.79 44.46 449.28 44.13Q449.77 43.8 450.39 43.8Q450.52 43.8 450.69 43.81Q450.86 43.82 450.98 43.84V45.17Q450.9 45.15 450.69 45.12Q450.47 45.1 450.25 45.1Q449.77 45.1 449.38 45.3Q448.99 45.5 448.78 45.86Q448.56 46.22 448.56 46.69V51ZM452.19 51V43.9H453.54V45.05H453.62Q453.82 44.46 454.31 44.13Q454.79 43.8 455.42 43.8Q455.55 43.8 455.72 43.81Q455.89 43.82 456.01 43.84V45.17Q455.93 45.15 455.71 45.12Q455.5 45.1 455.28 45.1Q454.79 45.1 454.41 45.3Q454.02 45.5 453.8 45.86Q453.59 46.22 453.59 46.69V51ZM460.28 51.15Q459.23 51.15 458.47 50.7Q457.71 50.24 457.3 49.43Q456.89 48.61 456.89 47.5Q456.89 46.41 457.29 45.58Q457.7 44.75 458.43 44.28Q459.17 43.81 460.16 43.81Q460.77 43.81 461.33 44.01Q461.9 44.21 462.35 44.64Q462.8 45.06 463.06 45.74Q463.33 46.42 463.33 47.38V47.88H458.29Q458.32 48.52 458.55 48.97Q458.79 49.48 459.24 49.73Q459.69 49.99 460.29 49.99Q460.68 49.99 461 49.88Q461.32 49.77 461.55 49.54Q461.78 49.32 461.9 48.99L463.22 49.3Q463.05 49.84 462.64 50.26Q462.24 50.68 461.64 50.91Q461.04 51.15 460.28 51.15ZM458.3 46.84H461.94Q461.9 46.39 461.75 46.02Q461.55 45.53 461.15 45.25Q460.75 44.97 460.16 44.97Q459.57 44.97 459.15 45.26Q458.73 45.54 458.51 46Q458.33 46.39 458.3 46.84ZM466.25 46.8V51H464.86V43.9H466.19L466.2 45.26Q466.49 44.6 466.96 44.25Q467.55 43.81 468.38 43.81Q469.11 43.81 469.65 44.12Q470.19 44.42 470.49 45.02Q470.8 45.61 470.8 46.49V51H469.4V46.66Q469.4 45.9 469 45.46Q468.6 45.03 467.9 45.03Q467.43 45.03 467.06 45.24Q466.68 45.45 466.47 45.84Q466.25 46.23 466.25 46.8ZM475.71 43.9V45.04H474.29V49.08Q474.29 49.51 474.48 49.71Q474.66 49.91 475.07 49.91Q475.18 49.91 475.35 49.88Q475.53 49.86 475.66 49.83L475.91 50.95Q475.68 51.03 475.43 51.06Q475.18 51.1 474.93 51.1Q473.96 51.1 473.43 50.6Q472.9 50.1 472.9 49.2V45.04H471.86V43.9H472.9V42.21H474.29V43.9ZM478.5 41.54V51H477.1V41.54ZM480.28 53.55 480.62 52.42 480.78 52.45Q481.14 52.55 481.43 52.5Q481.72 52.46 481.93 52.23Q482.15 52.01 482.27 51.55L482.43 51.03L479.73 43.9H481.24L482.64 47.93Q482.88 48.61 483.03 49.27Q483.09 49.53 483.16 49.79Q483.23 49.53 483.3 49.27Q483.46 48.6 483.7 47.93L485.12 43.9H486.62L483.54 51.98Q483.32 52.56 483.01 52.94Q482.69 53.32 482.26 53.51Q481.83 53.7 481.26 53.7Q480.93 53.7 480.67 53.66Q480.41 53.61 480.28 53.55Z" fill="#aab0d8" opacity="1"/><path d="M525.13 51.16Q524.07 51.16 523.29 50.82Q522.51 50.49 522.07 49.86Q521.63 49.24 521.59 48.37H523.04Q523.08 48.89 523.37 49.22Q523.66 49.56 524.13 49.72Q524.59 49.89 525.13 49.89Q525.73 49.89 526.2 49.7Q526.66 49.51 526.94 49.17Q527.21 48.82 527.21 48.37Q527.21 47.95 526.97 47.69Q526.73 47.43 526.33 47.25Q525.93 47.08 525.41 46.94L524.31 46.64Q523.15 46.33 522.5 45.72Q521.85 45.11 521.85 44.14Q521.85 43.32 522.29 42.71Q522.73 42.09 523.49 41.75Q524.25 41.42 525.2 41.42Q526.17 41.42 526.91 41.75Q527.65 42.09 528.07 42.68Q528.49 43.27 528.51 44.03H527.1Q527.03 43.38 526.5 43.03Q525.97 42.67 525.17 42.67Q524.59 42.67 524.17 42.85Q523.75 43.03 523.52 43.34Q523.29 43.66 523.29 44.06Q523.29 44.51 523.56 44.78Q523.84 45.06 524.24 45.22Q524.63 45.38 524.99 45.48L525.92 45.72Q526.37 45.83 526.85 46.03Q527.32 46.22 527.73 46.53Q528.14 46.84 528.39 47.29Q528.64 47.74 528.64 48.38Q528.64 49.18 528.23 49.81Q527.81 50.44 527.03 50.8Q526.25 51.16 525.13 51.16ZM533.28 43.9V45.04H531.87V49.08Q531.87 49.51 532.05 49.71Q532.23 49.91 532.64 49.91Q532.75 49.91 532.93 49.88Q533.11 49.86 533.23 49.83L533.48 50.95Q533.26 51.03 533.01 51.06Q532.75 51.1 532.5 51.1Q531.54 51.1 531.01 50.6Q530.47 50.1 530.47 49.2V45.04H529.44V43.9H530.47V42.21H531.87V43.9ZM536.66 51.16Q535.99 51.16 535.44 50.91Q534.9 50.66 534.58 50.17Q534.26 49.69 534.26 48.99Q534.26 48.39 534.49 48Q534.73 47.62 535.12 47.39Q535.52 47.16 536 47.05Q536.49 46.93 536.99 46.87Q537.62 46.8 538.01 46.75Q538.41 46.7 538.59 46.59Q538.78 46.48 538.78 46.23V46.19Q538.78 45.79 538.63 45.52Q538.48 45.25 538.18 45.1Q537.87 44.95 537.42 44.95Q536.96 44.95 536.63 45.09Q536.29 45.24 536.09 45.46Q535.88 45.68 535.78 45.92L534.47 45.58Q534.71 44.94 535.16 44.56Q535.61 44.17 536.19 43.99Q536.78 43.81 537.4 43.81Q537.83 43.81 538.31 43.92Q538.79 44.02 539.22 44.28Q539.65 44.55 539.91 45.03Q540.18 45.52 540.18 46.29V51H538.83V50.03H538.76Q538.62 50.3 538.34 50.56Q538.07 50.82 537.66 50.99Q537.24 51.16 536.66 51.16ZM536.97 50.04Q537.54 50.04 537.95 49.81Q538.36 49.59 538.57 49.22Q538.79 48.85 538.79 48.44V47.53Q538.71 47.61 538.5 47.67Q538.29 47.73 538.01 47.78Q537.74 47.83 537.49 47.86Q537.23 47.89 537.07 47.91Q536.67 47.96 536.35 48.08Q536.02 48.2 535.83 48.42Q535.63 48.65 535.63 49.01Q535.63 49.35 535.81 49.58Q535.98 49.81 536.28 49.92Q536.58 50.04 536.97 50.04ZM545.04 51.15Q544.04 51.15 543.3 50.69Q542.55 50.23 542.14 49.41Q541.73 48.58 541.73 47.49Q541.73 46.39 542.14 45.56Q542.55 44.73 543.3 44.27Q544.04 43.81 545.04 43.81Q545.59 43.81 546.08 43.96Q546.56 44.1 546.95 44.37Q547.34 44.64 547.61 45.03Q547.88 45.42 548.01 45.91L546.68 46.23Q546.61 45.95 546.47 45.73Q546.32 45.5 546.12 45.34Q545.91 45.17 545.64 45.08Q545.37 45 545.05 45Q544.41 45 543.98 45.33Q543.56 45.67 543.36 46.24Q543.15 46.8 543.15 47.49Q543.15 48.17 543.36 48.73Q543.56 49.29 543.98 49.63Q544.41 49.97 545.05 49.97Q545.38 49.97 545.65 49.87Q545.92 49.78 546.14 49.61Q546.35 49.44 546.5 49.21Q546.65 48.97 546.71 48.68L548.03 49Q547.9 49.5 547.63 49.9Q547.36 50.3 546.97 50.57Q546.58 50.85 546.09 51Q545.6 51.15 545.04 51.15ZM549.56 51V41.54H550.96V46.9H551.08L553.88 43.9H555.56L552.7 46.96L555.76 51H554.03L551.64 47.82L550.96 48.5V51Z" fill="#aab0d8" opacity="1"/><path d="M594.87 51.13Q593.64 51.13 592.68 50.55Q591.71 49.97 591.16 48.88Q590.61 47.79 590.61 46.28Q590.61 44.76 591.16 43.67Q591.71 42.58 592.68 42Q593.64 41.42 594.87 41.42Q595.61 41.42 596.27 41.63Q596.93 41.85 597.45 42.26Q597.96 42.67 598.3 43.26Q598.64 43.85 598.76 44.6H597.31Q597.22 44.15 597 43.8Q596.77 43.46 596.45 43.22Q596.12 42.98 595.72 42.86Q595.32 42.74 594.88 42.74Q594.07 42.74 593.42 43.14Q592.78 43.55 592.41 44.34Q592.04 45.13 592.04 46.28Q592.04 47.42 592.42 48.21Q592.79 49 593.43 49.4Q594.07 49.81 594.88 49.81Q595.32 49.81 595.72 49.68Q596.12 49.56 596.44 49.32Q596.77 49.08 597 48.73Q597.22 48.38 597.31 47.94H598.77Q598.66 48.64 598.33 49.22Q598 49.8 597.49 50.23Q596.97 50.66 596.31 50.9Q595.65 51.13 594.87 51.13ZM603.35 51.15Q602.35 51.15 601.6 50.69Q600.86 50.23 600.45 49.41Q600.03 48.58 600.03 47.49Q600.03 46.39 600.45 45.56Q600.86 44.73 601.6 44.27Q602.35 43.81 603.35 43.81Q604.35 43.81 605.09 44.27Q605.84 44.73 606.25 45.56Q606.67 46.39 606.67 47.49Q606.67 48.58 606.25 49.41Q605.84 50.23 605.09 50.69Q604.35 51.15 603.35 51.15ZM603.35 49.97Q603.99 49.97 604.42 49.63Q604.84 49.29 605.04 48.72Q605.25 48.16 605.25 47.49Q605.25 46.81 605.04 46.24Q604.84 45.67 604.42 45.33Q603.99 45 603.35 45Q602.7 45 602.29 45.33Q601.87 45.67 601.66 46.24Q601.45 46.8 601.45 47.49Q601.45 48.16 601.66 48.72Q601.87 49.29 602.29 49.63Q602.7 49.97 603.35 49.97ZM609.61 46.8V51H608.21V43.9H609.55L609.56 45.26Q609.85 44.6 610.32 44.25Q610.91 43.81 611.74 43.81Q612.47 43.81 613.01 44.12Q613.55 44.42 613.85 45.02Q614.16 45.61 614.16 46.49V51H612.76V46.66Q612.76 45.9 612.36 45.46Q611.96 45.03 611.26 45.03Q610.79 45.03 610.42 45.24Q610.04 45.45 609.83 45.84Q609.61 46.23 609.61 46.8ZM617.43 46.8V51H616.03V43.9H617.37L617.38 45.26Q617.67 44.6 618.14 44.25Q618.73 43.81 619.56 43.81Q620.29 43.81 620.83 44.12Q621.37 44.42 621.67 45.02Q621.98 45.61 621.98 46.49V51H620.58V46.66Q620.58 45.9 620.18 45.46Q619.78 45.03 619.08 45.03Q618.61 45.03 618.24 45.24Q617.86 45.45 617.65 45.84Q617.43 46.23 617.43 46.8ZM626.91 51.15Q625.87 51.15 625.11 50.7Q624.34 50.24 623.93 49.43Q623.53 48.61 623.53 47.5Q623.53 46.41 623.93 45.58Q624.33 44.75 625.07 44.28Q625.8 43.81 626.79 43.81Q627.4 43.81 627.97 44.01Q628.53 44.21 628.98 44.64Q629.43 45.06 629.7 45.74Q629.96 46.42 629.96 47.38V47.88H624.93Q624.95 48.52 625.18 48.97Q625.43 49.48 625.88 49.73Q626.33 49.99 626.93 49.99Q627.32 49.99 627.64 49.88Q627.96 49.77 628.19 49.54Q628.42 49.32 628.54 48.99L629.85 49.3Q629.68 49.84 629.28 50.26Q628.88 50.68 628.28 50.91Q627.68 51.15 626.91 51.15ZM624.93 46.84H628.58Q628.53 46.39 628.39 46.02Q628.18 45.53 627.79 45.25Q627.39 44.97 626.79 44.97Q626.2 44.97 625.78 45.26Q625.37 45.54 625.15 46Q624.97 46.39 624.93 46.84ZM634.47 51.15Q633.47 51.15 632.73 50.69Q631.99 50.23 631.57 49.41Q631.16 48.58 631.16 47.49Q631.16 46.39 631.57 45.56Q631.99 44.73 632.73 44.27Q633.47 43.81 634.47 43.81Q635.03 43.81 635.51 43.96Q635.99 44.1 636.38 44.37Q636.77 44.64 637.04 45.03Q637.31 45.42 637.45 45.91L636.12 46.23Q636.05 45.95 635.9 45.73Q635.76 45.5 635.55 45.34Q635.34 45.17 635.07 45.08Q634.8 45 634.48 45Q633.84 45 633.42 45.33Q633 45.67 632.79 46.24Q632.58 46.8 632.58 47.49Q632.58 48.17 632.79 48.73Q633 49.29 633.42 49.63Q633.84 49.97 634.48 49.97Q634.81 49.97 635.08 49.87Q635.36 49.78 635.57 49.61Q635.79 49.44 635.93 49.21Q636.08 48.97 636.14 48.68L637.46 49Q637.34 49.5 637.06 49.9Q636.79 50.3 636.4 50.57Q636.01 50.85 635.52 51Q635.03 51.15 634.47 51.15ZM642.03 43.9V45.04H640.61V49.08Q640.61 49.51 640.79 49.71Q640.97 49.91 641.39 49.91Q641.5 49.91 641.67 49.88Q641.85 49.86 641.98 49.83L642.23 50.95Q642 51.03 641.75 51.06Q641.5 51.1 641.25 51.1Q640.28 51.1 639.75 50.6Q639.22 50.1 639.22 49.2V45.04H638.18V43.9H639.22V42.21H640.61V43.9Z" fill="#aab0d8" opacity="1"/><rect x="836" y="30" width="124" height="34" rx="17" fill="url(#card)"/><rect x="836.5" y="30.5" width="123" height="33" rx="16" stroke="url(#edge)" stroke-width="1.1"/><rect x="853" y="30.5" width="90" height="1" fill="url(#hl)"/><path d="M883.17 52.15Q882.07 52.15 881.26 51.8Q880.45 51.46 879.99 50.81Q879.54 50.15 879.5 49.22H881.17Q881.21 49.71 881.48 50.04Q881.75 50.38 882.18 50.54Q882.62 50.7 883.16 50.7Q883.71 50.7 884.14 50.53Q884.57 50.36 884.81 50.05Q885.05 49.74 885.05 49.33Q885.05 48.97 884.84 48.72Q884.63 48.48 884.24 48.32Q883.86 48.15 883.35 48.02L882.27 47.74Q881.09 47.44 880.42 46.82Q879.76 46.2 879.76 45.2Q879.76 44.36 880.21 43.74Q880.66 43.11 881.44 42.76Q882.22 42.42 883.21 42.42Q884.22 42.42 884.98 42.76Q885.75 43.11 886.17 43.73Q886.6 44.34 886.62 45.13H884.98Q884.91 44.52 884.44 44.19Q883.96 43.86 883.19 43.86Q882.65 43.86 882.27 44.02Q881.89 44.18 881.68 44.46Q881.47 44.74 881.47 45.1Q881.47 45.49 881.72 45.75Q881.96 46 882.33 46.15Q882.71 46.31 883.09 46.4L883.97 46.63Q884.5 46.76 884.99 46.97Q885.49 47.18 885.88 47.5Q886.28 47.82 886.51 48.27Q886.75 48.73 886.75 49.35Q886.75 50.18 886.32 50.81Q885.9 51.44 885.1 51.79Q884.3 52.15 883.17 52.15ZM890.21 52.15Q889.54 52.15 889 51.9Q888.46 51.66 888.15 51.18Q887.83 50.71 887.83 50.01Q887.83 49.4 888.06 49.01Q888.28 48.62 888.67 48.38Q889.05 48.15 889.54 48.03Q890.02 47.91 890.54 47.85Q891.15 47.79 891.54 47.73Q891.93 47.68 892.11 47.57Q892.29 47.46 892.29 47.21V47.18Q892.29 46.83 892.15 46.59Q892.01 46.34 891.73 46.21Q891.46 46.08 891.05 46.08Q890.64 46.08 890.34 46.21Q890.04 46.34 889.85 46.54Q889.66 46.74 889.57 46.98L888.04 46.67Q888.25 46.04 888.68 45.63Q889.12 45.22 889.73 45.02Q890.34 44.81 891.05 44.81Q891.55 44.81 892.06 44.93Q892.57 45.05 892.99 45.33Q893.42 45.61 893.68 46.08Q893.94 46.55 893.94 47.26V52H892.36V51.02H892.3Q892.14 51.32 891.86 51.58Q891.59 51.83 891.18 51.99Q890.77 52.15 890.21 52.15ZM890.63 50.92Q891.15 50.92 891.52 50.72Q891.89 50.51 892.1 50.18Q892.3 49.85 892.3 49.45V48.62Q892.22 48.68 892.03 48.74Q891.83 48.79 891.6 48.84Q891.36 48.88 891.13 48.92Q890.89 48.95 890.74 48.97Q890.37 49.02 890.07 49.13Q889.77 49.25 889.6 49.45Q889.43 49.66 889.43 49.99Q889.43 50.29 889.59 50.5Q889.74 50.71 890.01 50.81Q890.28 50.92 890.63 50.92ZM895.62 54.53 896.01 53.24 896.21 53.29Q896.58 53.39 896.87 53.35Q897.17 53.31 897.36 53.09Q897.56 52.88 897.64 52.48L897.74 52.03L895.06 44.9H896.83L898.12 48.76Q898.35 49.45 898.5 50.13Q898.55 50.38 898.61 50.62Q898.67 50.38 898.73 50.12Q898.9 49.44 899.13 48.76L900.47 44.9H902.22L899.17 52.91Q898.96 53.48 898.63 53.88Q898.31 54.29 897.84 54.49Q897.37 54.7 896.73 54.7Q896.38 54.7 896.08 54.65Q895.79 54.6 895.62 54.53ZM908.27 47.84V52H906.62V42.54H908.24V46.21Q908.51 45.61 908.95 45.27Q909.52 44.81 910.39 44.81Q911.12 44.81 911.67 45.13Q912.22 45.44 912.52 46.03Q912.82 46.63 912.82 47.49V52H911.17V47.74Q911.17 47.03 910.8 46.62Q910.43 46.22 909.78 46.22Q909.35 46.22 909 46.41Q908.66 46.6 908.46 46.96Q908.27 47.33 908.27 47.84ZM914.58 52V44.9H916.23V52ZM915.4 43.9Q915.01 43.9 914.73 43.63Q914.44 43.37 914.44 43Q914.44 42.62 914.73 42.35Q915.01 42.09 915.4 42.09Q915.8 42.09 916.08 42.35Q916.37 42.62 916.37 42.99Q916.37 43.37 916.08 43.63Q915.8 43.9 915.4 43.9Z" fill="#f4f5ff" opacity="1"/><rect x="372" y="128" width="96" height="1.2" fill="url(#ln)"/><rect x="532" y="128" width="96" height="1.2" fill="url(#lnr)"/><circle cx="478" cy="128.6" r="2.6" fill="#8f86ff"/><circle cx="522" cy="128.6" r="2.6" fill="#8f86ff"/><g opacity="1"><path d="M500 115 L513 128 L500 141 L487 128 Z" stroke="#8f86ff" stroke-width="2" stroke-linejoin="round"/><circle cx="500" cy="128" r="3.6400000000000006" fill="#8f86ff"/><circle cx="500" cy="128" r="18.849999999999998" stroke="#8f86ff" stroke-opacity="0.35"/></g><path d="M390.76 218V198.22H366.2V218H360.13V172.74H366.2V192.77H390.76V172.74H396.83V218ZM410.72 218V189.6H405.64V184.89H416.67V218ZM412.39 179.56Q410.41 179.56 409.45 178.51Q408.49 177.45 408.49 175.84Q408.49 174.23 409.45 173.17Q410.41 172.12 412.39 172.12Q414.38 172.12 415.34 173.17Q416.3 174.23 416.3 175.84Q416.3 177.45 415.34 178.51Q414.38 179.56 412.39 179.56ZM428.89 227.73 424.11 225.94 429.88 209.94 434.78 211.8ZM459.58 218V172.74H465.65V218ZM477.93 189.48V172.74H483.01V189.48ZM494.3 218V184.89H499.01V192.52Q499.26 191.65 499.57 190.84Q500.81 187.5 503.35 185.7Q505.89 183.9 509.8 183.9H510.04Q513.95 183.9 516.52 185.7Q519.1 187.5 520.34 190.84Q520.52 191.46 520.71 192.08Q520.89 191.46 521.14 190.84Q522.44 187.5 525.02 185.7Q527.59 183.9 531.5 183.9H531.74Q535.65 183.9 538.25 185.7Q540.86 187.5 542.13 190.88Q543.4 194.25 543.4 199.09V218H537.45V197.79Q537.45 193.76 535.46 191.56Q533.48 189.36 529.95 189.36Q526.29 189.36 524.06 191.68Q521.82 194.01 521.82 198.16V218H515.87V197.79Q515.87 193.76 513.89 191.56Q511.9 189.36 508.37 189.36Q504.71 189.36 502.48 191.68Q500.25 194.01 500.25 198.16V218ZM564.48 218 580.79 172.74H591.08L607.88 218H601.62L596.66 204.48H575.39L570.56 218ZM594.61 199.03 586.99 178.2H584.69L577.31 199.03ZM615.69 218V177.45H611.1V172.74H621.64V218ZM634.66 218V189.6H629.58V184.89H640.62V218ZM636.34 179.56Q634.35 179.56 633.39 178.51Q632.43 177.45 632.43 175.84Q632.43 174.23 633.39 173.17Q634.35 172.12 636.34 172.12Q638.32 172.12 639.28 173.17Q640.24 174.23 640.24 175.84Q640.24 177.45 639.28 178.51Q638.32 179.56 636.34 179.56Z" fill="#f4f5ff" opacity="1"/><path d="M297.08 266V246.29H308.1V248.67H299.73V254.85L307.64 254.82V257.2L299.73 257.23V266ZM316.82 266.43Q314.25 266.43 312.88 264.76Q311.5 263.08 311.5 259.93V251.56H314.09V260.44Q314.09 262.14 315.01 263.1Q315.93 264.06 317.49 264.06Q319.11 264.06 320.14 263.02Q321.17 261.98 321.17 260.17V251.56H323.76V266H321.71V262.65Q321.6 263.06 321.46 263.41Q320.9 264.89 319.77 265.66Q318.65 266.43 316.93 266.43ZM328.94 266V248.34H326.94V246.29H331.53V266ZM336.66 266V248.34H334.67V246.29H339.26V266ZM343.52 259.6V257.39H353.57V259.6ZM364.61 266.49Q362.15 266.49 360.42 265.68Q358.7 264.87 357.78 263.44Q356.86 262 356.86 260.19H359.51Q359.51 261.09 359.98 261.98Q360.45 262.87 361.57 263.46Q362.69 264.06 364.61 264.06Q366.39 264.06 367.52 263.53Q368.66 263 369.2 262.15Q369.74 261.3 369.74 260.3Q369.74 259.09 368.69 258.29Q367.63 257.5 365.61 257.31L363.42 257.12Q360.8 256.9 359.24 255.5Q357.67 254.09 357.67 251.8Q357.67 249.99 358.55 248.64Q359.42 247.29 360.99 246.52Q362.56 245.75 364.64 245.75Q366.69 245.75 368.25 246.51Q369.82 247.26 370.7 248.63Q371.57 249.99 371.57 251.88H368.93Q368.93 250.93 368.48 250.1Q368.04 249.26 367.09 248.72Q366.15 248.18 364.64 248.18Q363.18 248.18 362.22 248.69Q361.26 249.21 360.79 250.03Q360.32 250.85 360.32 251.8Q360.32 252.88 361.15 253.71Q361.99 254.55 363.64 254.69L365.82 254.88Q367.85 255.04 369.32 255.73Q370.79 256.42 371.59 257.56Q372.38 258.71 372.38 260.3Q372.38 262.11 371.41 263.52Q370.44 264.92 368.69 265.7Q366.93 266.49 364.61 266.49ZM382.05 266.16Q380.43 266.16 379.26 265.7Q378.08 265.24 377.45 264.12Q376.81 263 376.81 261.09V253.53H374.33V251.58H376.81V247.21H379.3V251.58H384.26V253.53H379.3V261.41Q379.3 262.57 379.93 263.21Q380.57 263.84 381.73 263.84H384.26V266.16ZM396.66 266V263.17Q396.47 263.76 396.2 264.25Q395.58 265.3 394.51 265.84Q393.44 266.38 391.93 266.38Q390.31 266.38 389.14 265.82Q387.96 265.27 387.33 264.22Q386.69 263.17 386.69 261.68Q386.69 260.14 387.38 259.12Q388.07 258.09 389.39 257.56Q390.72 257.04 392.58 257.04H396.23V256.69Q396.23 255.2 395.46 254.44Q394.69 253.69 393.2 253.69Q392.36 253.69 391.47 253.71Q390.58 253.74 389.77 253.77Q388.96 253.8 388.37 253.85V251.58Q388.96 251.53 389.62 251.49Q390.29 251.45 390.99 251.43Q391.69 251.42 392.34 251.42Q394.55 251.42 395.96 251.95Q397.36 252.47 398.03 253.66Q398.71 254.85 398.71 256.87V266ZM396.23 258.98H392.47Q390.91 258.98 390.07 259.74Q389.23 260.49 389.23 261.68Q389.23 262.87 390.07 263.6Q390.91 264.33 392.47 264.33Q393.39 264.33 394.23 263.99Q395.06 263.65 395.62 262.85Q396.17 262.06 396.23 260.65ZM409.64 266.49Q407.78 266.49 406.42 265.84Q405.05 265.19 404.16 264.1Q403.27 263 402.83 261.68Q402.38 260.36 402.38 259.03V258.55Q402.38 257.17 402.83 255.85Q403.27 254.53 404.18 253.46Q405.08 252.39 406.43 251.74Q407.78 251.1 409.59 251.1Q411.4 251.1 412.84 251.77Q414.29 252.45 415.17 253.67Q416.04 254.9 416.15 256.58H413.67Q413.48 255.23 412.43 254.32Q411.37 253.42 409.59 253.42Q408.05 253.42 407.03 254.12Q406 254.82 405.49 256.04Q404.97 257.25 404.97 258.79Q404.97 260.28 405.49 261.5Q406 262.73 407.04 263.45Q408.08 264.16 409.64 264.16Q410.86 264.16 411.75 263.73Q412.64 263.3 413.18 262.57Q413.72 261.84 413.83 260.92H416.31Q416.23 262.62 415.33 263.87Q414.42 265.11 412.95 265.8Q411.48 266.49 409.64 266.49ZM429.76 266 424.33 259.28H422.42V266H419.82V246.29H422.42V258.74L428.57 251.58H431.3L425.98 257.74L432.76 266ZM453.47 266 452.06 264.49Q451.31 265.19 450.39 265.68Q448.79 266.49 446.77 266.49Q444.69 266.49 443.12 265.7Q441.56 264.92 440.69 263.57Q439.83 262.22 439.83 260.57V260.17Q439.83 258.22 440.94 256.71Q441.86 255.47 443.15 254.61Q442.67 253.85 442.45 253.18Q442.15 252.31 442.15 251.31Q442.15 249.56 442.81 248.4Q443.48 247.24 444.91 246.65Q446.34 246.07 448.61 246.07Q449.5 246.07 450.6 246.16Q451.71 246.24 452.57 246.34V248.61Q452.03 248.56 451.17 248.49Q450.31 248.42 449.47 248.38Q448.63 248.34 448.09 248.34Q446.18 248.34 445.41 249.11Q444.64 249.88 444.64 251.37Q444.64 252.55 445.19 253.55Q445.74 254.55 446.93 255.82L451.76 260.98Q451.98 260.55 452.17 260.03Q452.84 258.06 452.9 255.2H449.77V253.15H456.84V255.2H455.22Q455.19 257.68 454.68 259.68Q454.22 261.41 453.44 262.73L456.52 266ZM444.5 256.39Q443.64 256.95 443.07 257.85Q442.31 259.01 442.31 260.38Q442.31 261.65 442.92 262.52Q443.53 263.38 444.54 263.83Q445.55 264.27 446.77 264.27Q448.66 264.27 450.04 263.19Q450.28 263.03 450.47 262.81L445.34 257.33Q444.88 256.85 444.5 256.39ZM466.56 266V246.29H470.07L475.9 259.44H476.33L482.14 246.29H485.68V266H483.03V249.66L477.63 261.92H474.39L468.99 249.72V266ZM497.66 266.49Q495.77 266.49 494.34 265.84Q492.91 265.19 491.93 264.12Q490.94 263.06 490.44 261.73Q489.94 260.41 489.94 259.03V258.55Q489.94 257.17 490.46 255.83Q490.97 254.5 491.97 253.43Q492.97 252.37 494.4 251.73Q495.83 251.1 497.66 251.1Q499.5 251.1 500.93 251.73Q502.36 252.37 503.36 253.43Q504.36 254.5 504.87 255.83Q505.39 257.17 505.39 258.55V259.03Q505.39 260.41 504.89 261.73Q504.39 263.06 503.4 264.12Q502.42 265.19 500.99 265.84Q499.55 266.49 497.66 266.49ZM497.66 264.16Q499.28 264.16 500.43 263.45Q501.58 262.73 502.19 261.52Q502.79 260.3 502.79 258.79Q502.79 257.25 502.17 256.04Q501.55 254.82 500.4 254.12Q499.26 253.42 497.66 253.42Q496.1 253.42 494.94 254.12Q493.78 254.82 493.16 256.04Q492.53 257.25 492.53 258.79Q492.53 260.3 493.14 261.52Q493.75 262.73 494.9 263.45Q496.04 264.16 497.66 264.16ZM516.89 266.49Q515.11 266.49 513.72 265.7Q512.33 264.92 511.52 263.41Q511.41 263.25 511.33 263.03V266H509.27V246.29H511.87V254.07Q511.87 254.04 511.89 254.01Q512.73 252.53 514.09 251.81Q515.46 251.1 517.1 251.1Q518.64 251.1 519.91 251.68Q521.18 252.26 522.1 253.27Q523.02 254.28 523.5 255.62Q523.99 256.95 523.99 258.49V258.98Q523.99 260.52 523.49 261.87Q522.99 263.22 522.05 264.26Q521.1 265.3 519.79 265.89Q518.48 266.49 516.89 266.49ZM516.59 264.22Q518.05 264.22 519.13 263.52Q520.21 262.81 520.8 261.59Q521.4 260.36 521.4 258.74Q521.4 257.12 520.79 255.9Q520.18 254.69 519.1 254.03Q518.02 253.36 516.59 253.36Q515.3 253.36 514.19 253.94Q513.08 254.53 512.42 255.62Q511.76 256.71 511.76 258.25V259.49Q511.76 260.98 512.43 262.03Q513.11 263.08 514.22 263.65Q515.32 264.22 516.59 264.22ZM528.58 266V253.63H526.37V251.58H531.17V266ZM529.31 249.26Q528.44 249.26 528.03 248.8Q527.61 248.34 527.61 247.64Q527.61 246.94 528.03 246.48Q528.44 246.02 529.31 246.02Q530.17 246.02 530.59 246.48Q531.01 246.94 531.01 247.64Q531.01 248.34 530.59 248.8Q530.17 249.26 529.31 249.26ZM536.36 266V248.34H534.36V246.29H538.95V266ZM550.04 266.49Q548.15 266.49 546.78 265.84Q545.4 265.19 544.54 264.12Q543.67 263.06 543.25 261.73Q542.84 260.41 542.84 259.03V258.55Q542.84 257.14 543.25 255.82Q543.67 254.5 544.54 253.43Q545.4 252.37 546.74 251.73Q548.07 251.1 549.88 251.1Q552.23 251.1 553.76 252.11Q555.28 253.12 556.03 254.71Q556.77 256.31 556.77 258.12V259.28H545.32Q545.4 260.52 545.83 261.55Q546.32 262.79 547.37 263.5Q548.42 264.22 550.04 264.22Q551.75 264.22 552.81 263.46Q553.88 262.71 554.09 261.71H556.52Q556.23 263.19 555.34 264.27Q554.45 265.35 553.1 265.92Q551.75 266.49 550.04 266.49ZM545.43 257.33H554.23Q554.12 256.44 553.8 255.71Q553.31 254.61 552.34 253.99Q551.37 253.36 549.88 253.36Q548.34 253.36 547.33 254.07Q546.32 254.77 545.83 255.98Q545.56 256.6 545.43 257.33ZM566.97 266.11V246.18H573.72Q576.4 246.18 578.37 247.01Q580.34 247.83 581.65 249.22Q582.96 250.61 583.61 252.32Q584.25 254.04 584.25 255.82V256.42Q584.25 258.14 583.61 259.87Q582.96 261.6 581.65 263Q580.34 264.41 578.37 265.26Q576.4 266.11 573.72 266.11ZM569.62 248.61V263.68H573.99Q575.78 263.68 577.17 263.1Q578.56 262.52 579.54 261.49Q580.53 260.46 581.04 259.09Q581.55 257.71 581.55 256.12Q581.55 254.44 581.04 253.08Q580.53 251.72 579.54 250.7Q578.56 249.69 577.17 249.15Q575.78 248.61 573.99 248.61ZM594.08 266.49Q592.19 266.49 590.81 265.84Q589.44 265.19 588.57 264.12Q587.71 263.06 587.29 261.73Q586.87 260.41 586.87 259.03V258.55Q586.87 257.14 587.29 255.82Q587.71 254.5 588.57 253.43Q589.44 252.37 590.77 251.73Q592.11 251.1 593.92 251.1Q596.27 251.1 597.79 252.11Q599.32 253.12 600.06 254.71Q600.8 256.31 600.8 258.12V259.28H589.36Q589.44 260.52 589.87 261.55Q590.36 262.79 591.41 263.5Q592.46 264.22 594.08 264.22Q595.78 264.22 596.85 263.46Q597.92 262.71 598.13 261.71H600.56Q600.26 263.19 599.37 264.27Q598.48 265.35 597.13 265.92Q595.78 266.49 594.08 266.49ZM589.46 257.33H598.27Q598.16 256.44 597.83 255.71Q597.35 254.61 596.38 253.99Q595.4 253.36 593.92 253.36Q592.38 253.36 591.37 254.07Q590.36 254.77 589.87 255.98Q589.6 256.6 589.46 257.33ZM607.55 266 602.64 251.58H605.34L609.47 263.95H610.04L613.63 251.58H616.17L611.9 266ZM625.7 266.49Q623.81 266.49 622.43 265.84Q621.05 265.19 620.19 264.12Q619.33 263.06 618.91 261.73Q618.49 260.41 618.49 259.03V258.55Q618.49 257.14 618.91 255.82Q619.33 254.5 620.19 253.43Q621.05 252.37 622.39 251.73Q623.73 251.1 625.54 251.1Q627.89 251.1 629.41 252.11Q630.94 253.12 631.68 254.71Q632.42 256.31 632.42 258.12V259.28H620.97Q621.05 260.52 621.49 261.55Q621.97 262.79 623.03 263.5Q624.08 264.22 625.7 264.22Q627.4 264.22 628.47 263.46Q629.53 262.71 629.75 261.71H632.18Q631.88 263.19 630.99 264.27Q630.1 265.35 628.75 265.92Q627.4 266.49 625.7 266.49ZM621.08 257.33H629.88Q629.78 256.44 629.45 255.71Q628.97 254.61 627.99 253.99Q627.02 253.36 625.54 253.36Q624 253.36 622.98 254.07Q621.97 254.77 621.49 255.98Q621.22 256.6 621.08 257.33ZM636.26 266V248.34H634.26V246.29H638.85V266ZM650.46 266.49Q648.57 266.49 647.14 265.84Q645.71 265.19 644.72 264.12Q643.73 263.06 643.23 261.73Q642.74 260.41 642.74 259.03V258.55Q642.74 257.17 643.25 255.83Q643.76 254.5 644.76 253.43Q645.76 252.37 647.19 251.73Q648.62 251.1 650.46 251.1Q652.29 251.1 653.72 251.73Q655.16 252.37 656.15 253.43Q657.15 254.5 657.67 255.83Q658.18 257.17 658.18 258.55V259.03Q658.18 260.41 657.68 261.73Q657.18 263.06 656.19 264.12Q655.21 265.19 653.78 265.84Q652.35 266.49 650.46 266.49ZM650.46 264.16Q652.08 264.16 653.22 263.45Q654.37 262.73 654.98 261.52Q655.59 260.3 655.59 258.79Q655.59 257.25 654.97 256.04Q654.35 254.82 653.2 254.12Q652.05 253.42 650.46 253.42Q648.89 253.42 647.73 254.12Q646.57 254.82 645.95 256.04Q645.33 257.25 645.33 258.79Q645.33 260.3 645.93 261.52Q646.54 262.73 647.69 263.45Q648.84 264.16 650.46 264.16ZM662.07 271.4V251.58H664.12V255.09Q664.34 254.47 664.63 253.96Q665.47 252.5 666.85 251.8Q668.22 251.1 669.84 251.1Q671.41 251.1 672.69 251.69Q673.97 252.28 674.89 253.31Q675.81 254.34 676.3 255.69Q676.78 257.04 676.78 258.55V259.03Q676.78 260.55 676.27 261.9Q675.76 263.25 674.82 264.27Q673.89 265.3 672.61 265.89Q671.33 266.49 669.79 266.49Q668.25 266.49 666.85 265.81Q665.55 265.19 664.66 263.84V271.4ZM669.38 264.22Q670.84 264.22 671.92 263.53Q673 262.84 673.6 261.61Q674.19 260.38 674.19 258.79Q674.19 257.17 673.6 255.96Q673 254.74 671.92 254.05Q670.84 253.36 669.38 253.36Q668.09 253.36 666.98 253.94Q665.87 254.53 665.21 255.62Q664.55 256.71 664.55 258.25V259.49Q664.55 260.98 665.23 262.03Q665.9 263.08 667.01 263.65Q668.12 264.22 669.38 264.22ZM686.8 266.49Q684.91 266.49 683.53 265.84Q682.16 265.19 681.29 264.12Q680.43 263.06 680.01 261.73Q679.59 260.41 679.59 259.03V258.55Q679.59 257.14 680.01 255.82Q680.43 254.5 681.29 253.43Q682.16 252.37 683.49 251.73Q684.83 251.1 686.64 251.1Q688.99 251.1 690.51 252.11Q692.04 253.12 692.78 254.71Q693.52 256.31 693.52 258.12V259.28H682.07Q682.16 260.52 682.59 261.55Q683.07 262.79 684.13 263.5Q685.18 264.22 686.8 264.22Q688.5 264.22 689.57 263.46Q690.63 262.71 690.85 261.71H693.28Q692.98 263.19 692.09 264.27Q691.2 265.35 689.85 265.92Q688.5 266.49 686.8 266.49ZM682.18 257.33H690.98Q690.88 256.44 690.55 255.71Q690.07 254.61 689.09 253.99Q688.12 253.36 686.64 253.36Q685.1 253.36 684.09 254.07Q683.07 254.77 682.59 255.98Q682.32 256.6 682.18 257.33ZM697.19 266V251.58H699.25V255.9Q699.52 253.96 700.54 252.88Q701.92 251.42 704.7 251.42H705.19V253.74H704.27Q702.11 253.74 700.95 254.89Q699.79 256.04 699.79 258.2V266Z" fill="#a9a3ff" opacity="1"/><path d="M227.09 304V293.09H230.96Q232.1 293.09 232.84 293.48Q233.59 293.87 233.95 294.53Q234.31 295.18 234.31 295.98Q234.31 296.68 234.06 297.14Q233.81 297.6 233.41 297.87Q233 298.14 232.52 298.27V298.38Q233.04 298.4 233.54 298.73Q234.05 299.05 234.39 299.64Q234.74 300.24 234.74 301.09Q234.74 301.91 234.36 302.57Q233.98 303.23 233.18 303.62Q232.37 304 231.08 304ZM228.48 302.77H231.04Q232.32 302.77 232.86 302.28Q233.39 301.79 233.39 301.08Q233.39 300.53 233.12 300.07Q232.84 299.61 232.33 299.33Q231.82 299.05 231.12 299.05H228.48ZM228.48 297.88H230.88Q231.47 297.88 231.94 297.65Q232.42 297.42 232.7 296.99Q232.98 296.57 232.98 296.01Q232.98 295.3 232.48 294.81Q231.99 294.32 230.93 294.32H228.48ZM239.52 304.1Q238.69 304.1 238.06 303.76Q237.44 303.42 237.09 302.73Q236.74 302.04 236.74 301.01V295.81H238.06V300.9Q238.06 301.85 238.56 302.38Q239.06 302.92 239.91 302.92Q240.5 302.92 240.96 302.66Q241.43 302.4 241.7 301.91Q241.97 301.41 241.97 300.72V295.81H243.3V304H242.02V302.47Q241.67 303.27 241.12 303.63Q240.42 304.1 239.52 304.1ZM245.61 304V295.81H246.93V304ZM246.28 294.47Q245.9 294.47 245.63 294.21Q245.36 293.96 245.36 293.6Q245.36 293.23 245.63 292.98Q245.9 292.73 246.28 292.73Q246.66 292.73 246.93 292.98Q247.2 293.23 247.2 293.6Q247.2 293.96 246.93 294.21Q246.66 294.47 246.28 294.47ZM250.56 293.09V304H249.24V293.09ZM255.95 304.18Q254.93 304.18 254.14 303.66Q253.36 303.14 252.92 302.18Q252.48 301.23 252.48 299.93Q252.48 298.63 252.92 297.68Q253.37 296.73 254.15 296.22Q254.94 295.71 255.95 295.71Q256.75 295.71 257.22 295.97Q257.69 296.24 257.94 296.57Q258.19 296.9 258.33 297.12H258.43V293.09H259.75V304H258.47V302.73H258.33Q258.19 302.96 257.93 303.3Q257.67 303.64 257.2 303.91Q256.73 304.18 255.95 304.18ZM256.14 303Q256.89 303 257.4 302.6Q257.92 302.21 258.18 301.52Q258.44 300.82 258.44 299.91Q258.44 299 258.18 298.33Q257.92 297.65 257.41 297.27Q256.9 296.89 256.14 296.89Q255.37 296.89 254.85 297.29Q254.33 297.69 254.08 298.38Q253.82 299.06 253.82 299.91Q253.82 300.77 254.08 301.47Q254.34 302.17 254.86 302.58Q255.38 303 256.14 303ZM262.06 304V295.81H263.38V304ZM262.73 294.47Q262.35 294.47 262.08 294.21Q261.81 293.96 261.81 293.6Q261.81 293.23 262.08 292.98Q262.35 292.73 262.73 292.73Q263.11 292.73 263.38 292.98Q263.65 293.23 263.65 293.6Q263.65 293.96 263.38 294.21Q263.11 294.47 262.73 294.47ZM267.01 299.09V304H265.69V295.81H266.96L266.97 297.33Q267.31 296.56 267.86 296.19Q268.54 295.71 269.47 295.71Q270.3 295.71 270.92 296.05Q271.55 296.39 271.89 297.07Q272.24 297.76 272.24 298.8V304H270.92V298.91Q270.92 297.96 270.43 297.43Q269.94 296.9 269.08 296.9Q268.49 296.9 268.02 297.15Q267.55 297.41 267.28 297.9Q267.01 298.39 267.01 299.09ZM277.87 307.24Q276.97 307.24 276.3 307.01Q275.64 306.78 275.2 306.4Q274.76 306.01 274.51 305.57L275.57 304.88Q275.75 305.11 276.01 305.4Q276.27 305.68 276.71 305.89Q277.16 306.09 277.87 306.09Q278.86 306.09 279.49 305.62Q280.12 305.15 280.12 304.14V302.5H280Q279.86 302.73 279.61 303.06Q279.35 303.38 278.88 303.62Q278.41 303.87 277.62 303.87Q276.64 303.87 275.85 303.4Q275.07 302.94 274.62 302.04Q274.16 301.15 274.16 299.87Q274.16 298.6 274.61 297.67Q275.05 296.73 275.84 296.22Q276.63 295.71 277.65 295.71Q278.44 295.71 278.91 295.97Q279.38 296.23 279.64 296.57Q279.9 296.9 280.04 297.12H280.16V295.81H281.44V304.21Q281.44 305.27 280.97 305.94Q280.49 306.61 279.68 306.92Q278.87 307.24 277.87 307.24ZM277.84 302.7Q278.59 302.7 279.1 302.36Q279.61 302.02 279.87 301.37Q280.14 300.73 280.14 299.84Q280.14 298.97 279.88 298.31Q279.62 297.64 279.11 297.27Q278.59 296.89 277.84 296.89Q277.06 296.89 276.54 297.29Q276.02 297.69 275.76 298.35Q275.5 299.02 275.5 299.84Q275.5 300.68 275.77 301.33Q276.03 301.97 276.55 302.33Q277.07 302.7 277.84 302.7ZM291.2 295.81V296.94H289.51V301.88Q289.51 302.43 289.74 302.68Q289.96 302.93 290.48 302.93Q290.6 302.93 290.8 302.9Q290.99 302.87 291.15 302.84L291.42 303.96Q291.22 304.03 290.96 304.07Q290.7 304.1 290.44 304.1Q289.38 304.1 288.79 303.54Q288.19 302.98 288.19 301.98V296.94H286.96V295.81H288.19V293.86H289.51V295.81ZM294.2 299.09V304H292.88V293.09H294.2V297.23Q294.54 296.53 295.04 296.19Q295.73 295.71 296.66 295.71Q297.49 295.71 298.12 296.05Q298.74 296.39 299.09 297.07Q299.44 297.76 299.44 298.8V304H298.11V298.91Q298.11 297.96 297.62 297.43Q297.12 296.9 296.27 296.9Q295.68 296.9 295.21 297.15Q294.74 297.41 294.47 297.9Q294.2 298.39 294.2 299.09ZM301.75 304V295.81H303.07V304ZM302.42 294.47Q302.04 294.47 301.77 294.21Q301.5 293.96 301.5 293.6Q301.5 293.23 301.77 292.98Q302.04 292.73 302.42 292.73Q302.8 292.73 303.07 292.98Q303.34 293.23 303.34 293.6Q303.34 293.96 303.07 294.21Q302.8 294.47 302.42 294.47ZM306.7 299.09V304H305.38V295.81H306.65L306.66 297.33Q307 296.56 307.55 296.19Q308.23 295.71 309.16 295.71Q309.99 295.71 310.61 296.05Q311.24 296.39 311.58 297.07Q311.93 297.76 311.93 298.8V304H310.61V298.91Q310.61 297.96 310.12 297.43Q309.63 296.9 308.77 296.9Q308.18 296.9 307.71 297.15Q307.24 297.41 306.97 297.9Q306.7 298.39 306.7 299.09ZM317.56 307.24Q316.66 307.24 315.99 307.01Q315.33 306.78 314.89 306.4Q314.45 306.01 314.2 305.57L315.26 304.88Q315.44 305.11 315.7 305.4Q315.96 305.68 316.4 305.89Q316.85 306.09 317.56 306.09Q318.55 306.09 319.18 305.62Q319.81 305.15 319.81 304.14V302.5H319.69Q319.55 302.73 319.3 303.06Q319.04 303.38 318.57 303.62Q318.1 303.87 317.31 303.87Q316.33 303.87 315.54 303.4Q314.76 302.94 314.31 302.04Q313.85 301.15 313.85 299.87Q313.85 298.6 314.3 297.67Q314.74 296.73 315.53 296.22Q316.32 295.71 317.34 295.71Q318.13 295.71 318.6 295.97Q319.07 296.23 319.33 296.57Q319.59 296.9 319.73 297.12H319.85V295.81H321.13V304.21Q321.13 305.27 320.66 305.94Q320.18 306.61 319.37 306.92Q318.56 307.24 317.56 307.24ZM317.53 302.7Q318.28 302.7 318.79 302.36Q319.3 302.02 319.56 301.37Q319.83 300.73 319.83 299.84Q319.83 298.97 319.57 298.31Q319.31 297.64 318.8 297.27Q318.28 296.89 317.53 296.89Q316.75 296.89 316.23 297.29Q315.71 297.69 315.45 298.35Q315.19 299.02 315.19 299.84Q315.19 300.68 315.46 301.33Q315.72 301.97 316.24 302.33Q316.76 302.7 317.53 302.7ZM326.23 304.18Q325.39 304.18 324.73 303.93Q324.08 303.69 323.65 303.2Q323.23 302.72 323.08 302.02L324.33 301.71Q324.51 302.39 325 302.7Q325.48 303.02 326.21 303.02Q327.07 303.02 327.58 302.65Q328.09 302.29 328.09 301.78Q328.09 301.36 327.79 301.07Q327.5 300.79 326.89 300.65L325.53 300.33Q324.41 300.07 323.87 299.51Q323.33 298.96 323.33 298.1Q323.33 297.39 323.72 296.86Q324.12 296.32 324.8 296.01Q325.49 295.71 326.36 295.71Q327.2 295.71 327.79 295.96Q328.38 296.21 328.75 296.66Q329.12 297.1 329.31 297.68L328.11 297.99Q327.94 297.55 327.55 297.19Q327.16 296.83 326.37 296.83Q325.64 296.83 325.15 297.17Q324.66 297.5 324.66 298.02Q324.66 298.47 324.99 298.74Q325.32 299.02 326.04 299.19L327.28 299.48Q328.39 299.74 328.92 300.3Q329.46 300.85 329.46 301.69Q329.46 302.41 329.05 302.97Q328.65 303.53 327.92 303.85Q327.19 304.18 326.23 304.18ZM338.8 295.81V296.94H337.12V301.88Q337.12 302.43 337.34 302.68Q337.57 302.93 338.09 302.93Q338.21 302.93 338.41 302.9Q338.6 302.87 338.76 302.84L339.03 303.96Q338.83 304.03 338.57 304.07Q338.31 304.1 338.05 304.1Q336.99 304.1 336.4 303.54Q335.8 302.98 335.8 301.98V296.94H334.57V295.81H335.8V293.86H337.12V295.81ZM341.81 299.09V304H340.49V293.09H341.81V297.23Q342.14 296.53 342.65 296.19Q343.34 295.71 344.27 295.71Q345.1 295.71 345.72 296.05Q346.35 296.39 346.7 297.07Q347.04 297.76 347.04 298.8V304H345.72V298.91Q345.72 297.96 345.22 297.43Q344.73 296.9 343.87 296.9Q343.29 296.9 342.82 297.15Q342.35 297.41 342.08 297.9Q341.81 298.39 341.81 299.09ZM351.65 304.19Q350.88 304.19 350.24 303.9Q349.61 303.6 349.23 303.04Q348.86 302.48 348.86 301.67Q348.86 300.97 349.14 300.53Q349.42 300.09 349.88 299.84Q350.35 299.58 350.91 299.46Q351.48 299.33 352.05 299.26Q352.78 299.17 353.24 299.11Q353.7 299.06 353.93 298.94Q354.15 298.81 354.15 298.51V298.47Q354.15 297.96 353.96 297.6Q353.77 297.25 353.39 297.06Q353.01 296.87 352.44 296.87Q351.85 296.87 351.43 297.05Q351.01 297.23 350.75 297.51Q350.49 297.78 350.36 298.07L349.1 297.65Q349.41 296.9 349.95 296.48Q350.48 296.06 351.12 295.88Q351.77 295.71 352.4 295.71Q352.81 295.71 353.33 295.81Q353.86 295.91 354.34 296.2Q354.83 296.49 355.15 297.07Q355.47 297.64 355.47 298.6V304H354.17V302.89H354.08Q353.94 303.17 353.64 303.48Q353.33 303.78 352.84 303.99Q352.35 304.19 351.65 304.19ZM351.88 303.03Q352.61 303.03 353.12 302.74Q353.62 302.45 353.89 302Q354.15 301.54 354.15 301.04V299.91Q354.07 300 353.8 300.08Q353.53 300.15 353.18 300.21Q352.83 300.27 352.5 300.31Q352.18 300.35 351.99 300.37Q351.51 300.43 351.1 300.58Q350.68 300.72 350.44 300.99Q350.19 301.27 350.19 301.74Q350.19 302.16 350.41 302.45Q350.63 302.73 351.01 302.88Q351.39 303.03 351.88 303.03ZM361 295.81V296.94H359.32V301.88Q359.32 302.43 359.54 302.68Q359.77 302.93 360.29 302.93Q360.41 302.93 360.61 302.9Q360.8 302.87 360.96 302.84L361.23 303.96Q361.03 304.03 360.77 304.07Q360.51 304.1 360.25 304.1Q359.19 304.1 358.59 303.54Q358 302.98 358 301.98V296.94H356.77V295.81H358V293.86H359.32V295.81ZM369.69 304.18Q368.85 304.18 368.19 303.93Q367.54 303.69 367.11 303.2Q366.69 302.72 366.54 302.02L367.79 301.71Q367.97 302.39 368.46 302.7Q368.94 303.02 369.68 303.02Q370.53 303.02 371.04 302.65Q371.55 302.29 371.55 301.78Q371.55 301.36 371.25 301.07Q370.96 300.79 370.35 300.65L368.99 300.33Q367.87 300.07 367.33 299.51Q366.79 298.96 366.79 298.1Q366.79 297.39 367.19 296.86Q367.58 296.32 368.27 296.01Q368.95 295.71 369.82 295.71Q370.67 295.71 371.25 295.96Q371.84 296.21 372.21 296.66Q372.58 297.1 372.77 297.68L371.57 297.99Q371.41 297.55 371.01 297.19Q370.62 296.83 369.83 296.83Q369.1 296.83 368.61 297.17Q368.12 297.5 368.12 298.02Q368.12 298.47 368.45 298.74Q368.78 299.02 369.5 299.19L370.74 299.48Q371.85 299.74 372.39 300.3Q372.92 300.85 372.92 301.69Q372.92 302.41 372.51 302.97Q372.11 303.53 371.38 303.85Q370.65 304.18 369.69 304.18ZM377.12 304.19Q376.34 304.19 375.71 303.9Q375.07 303.6 374.7 303.04Q374.33 302.48 374.33 301.67Q374.33 300.97 374.61 300.53Q374.88 300.09 375.35 299.84Q375.81 299.58 376.38 299.46Q376.94 299.33 377.51 299.26Q378.25 299.17 378.71 299.11Q379.17 299.06 379.39 298.94Q379.62 298.81 379.62 298.51V298.47Q379.62 297.96 379.43 297.6Q379.23 297.25 378.85 297.06Q378.47 296.87 377.9 296.87Q377.32 296.87 376.9 297.05Q376.48 297.23 376.22 297.51Q375.96 297.78 375.83 298.07L374.56 297.65Q374.88 296.9 375.41 296.48Q375.95 296.06 376.59 295.88Q377.24 295.71 377.86 295.71Q378.28 295.71 378.8 295.81Q379.32 295.91 379.81 296.2Q380.3 296.49 380.62 297.07Q380.93 297.64 380.93 298.6V304H379.64V302.89H379.55Q379.41 303.17 379.1 303.48Q378.8 303.78 378.3 303.99Q377.81 304.19 377.12 304.19ZM377.34 303.03Q378.08 303.03 378.58 302.74Q379.09 302.45 379.35 302Q379.62 301.54 379.62 301.04V299.91Q379.53 300 379.26 300.08Q378.99 300.15 378.65 300.21Q378.3 300.27 377.97 300.31Q377.65 300.35 377.45 300.37Q376.98 300.43 376.56 300.58Q376.15 300.72 375.9 300.99Q375.65 301.27 375.65 301.74Q375.65 302.16 375.87 302.45Q376.09 302.73 376.47 302.88Q376.85 303.03 377.34 303.03ZM385.61 304 382.49 295.81H383.93L385.67 300.67Q385.95 301.42 386.15 302.17Q386.23 302.48 386.31 302.79Q386.39 302.48 386.48 302.17Q386.67 301.42 386.94 300.67L388.68 295.81H390.13L387 304ZM395.12 304.18Q393.93 304.18 393.07 303.65Q392.21 303.12 391.75 302.18Q391.28 301.23 391.28 299.97Q391.28 298.71 391.74 297.75Q392.19 296.79 393.02 296.25Q393.85 295.71 394.97 295.71Q395.62 295.71 396.25 295.93Q396.89 296.14 397.4 296.62Q397.92 297.1 398.23 297.88Q398.53 298.67 398.53 299.8V300.35H392.62Q392.65 301.14 392.93 301.71Q393.25 302.35 393.81 302.68Q394.38 303 395.13 303Q395.61 303 396.01 302.86Q396.4 302.73 396.69 302.44Q396.97 302.16 397.13 301.74L398.4 302.1Q398.21 302.71 397.76 303.18Q397.3 303.65 396.63 303.91Q395.96 304.18 395.12 304.18ZM392.62 299.24H397.19Q397.14 298.68 396.96 298.21Q396.7 297.59 396.2 297.24Q395.71 296.88 394.97 296.88Q394.23 296.88 393.7 297.24Q393.17 297.61 392.89 298.18Q392.66 298.68 392.62 299.24ZM404.64 307.06V295.81H405.92V297.12H406.06Q406.2 296.9 406.45 296.57Q406.7 296.24 407.17 295.97Q407.64 295.71 408.44 295.71Q409.46 295.71 410.24 296.22Q411.02 296.73 411.46 297.68Q411.91 298.63 411.91 299.93Q411.91 301.23 411.47 302.18Q411.03 303.14 410.25 303.66Q409.47 304.18 408.44 304.18Q407.67 304.18 407.19 303.91Q406.72 303.64 406.46 303.3Q406.2 302.96 406.06 302.73H405.96V307.06ZM408.25 303Q409.01 303 409.53 302.58Q410.05 302.17 410.31 301.47Q410.57 300.77 410.57 299.91Q410.57 299.06 410.31 298.38Q410.05 297.69 409.54 297.29Q409.02 296.89 408.25 296.89Q407.49 296.89 406.98 297.27Q406.47 297.65 406.21 298.33Q405.95 299 405.95 299.91Q405.95 300.82 406.21 301.52Q406.47 302.21 406.99 302.6Q407.51 303 408.25 303ZM417.27 304.18Q416.08 304.18 415.22 303.65Q414.36 303.12 413.9 302.18Q413.43 301.23 413.43 299.97Q413.43 298.71 413.89 297.75Q414.34 296.79 415.17 296.25Q416 295.71 417.12 295.71Q417.77 295.71 418.4 295.93Q419.03 296.14 419.55 296.62Q420.07 297.1 420.37 297.88Q420.68 298.67 420.68 299.8V300.35H414.76Q414.79 301.14 415.08 301.71Q415.39 302.35 415.96 302.68Q416.53 303 417.28 303Q417.76 303 418.16 302.86Q418.55 302.73 418.84 302.44Q419.12 302.16 419.28 301.74L420.55 302.1Q420.36 302.71 419.91 303.18Q419.45 303.65 418.78 303.91Q418.11 304.18 417.27 304.18ZM414.77 299.24H419.34Q419.29 298.68 419.11 298.21Q418.85 297.59 418.35 297.24Q417.86 296.88 417.12 296.88Q416.38 296.88 415.85 297.24Q415.32 297.61 415.04 298.18Q414.81 298.68 414.77 299.24ZM425.9 304.18Q424.79 304.18 423.95 303.65Q423.11 303.12 422.65 302.17Q422.18 301.22 422.18 299.96Q422.18 298.68 422.65 297.72Q423.11 296.76 423.95 296.24Q424.79 295.71 425.9 295.71Q427.03 295.71 427.87 296.24Q428.71 296.76 429.18 297.72Q429.65 298.68 429.65 299.96Q429.65 301.22 429.18 302.17Q428.71 303.12 427.87 303.65Q427.03 304.18 425.9 304.18ZM425.9 303Q426.73 303 427.27 302.57Q427.8 302.15 428.06 301.45Q428.31 300.76 428.31 299.96Q428.31 299.14 428.06 298.44Q427.8 297.75 427.27 297.32Q426.73 296.89 425.9 296.89Q425.08 296.89 424.56 297.32Q424.03 297.75 423.77 298.44Q423.52 299.14 423.52 299.96Q423.52 300.76 423.77 301.45Q424.03 302.15 424.56 302.57Q425.08 303 425.9 303ZM431.57 307.06V295.81H432.84V297.12H432.99Q433.13 296.9 433.38 296.57Q433.62 296.24 434.09 295.97Q434.56 295.71 435.36 295.71Q436.39 295.71 437.17 296.22Q437.95 296.73 438.39 297.68Q438.83 298.63 438.83 299.93Q438.83 301.23 438.39 302.18Q437.95 303.14 437.17 303.66Q436.39 304.18 435.37 304.18Q434.59 304.18 434.11 303.91Q433.64 303.64 433.38 303.3Q433.13 302.96 432.99 302.73H432.88V307.06ZM435.17 303Q435.94 303 436.46 302.58Q436.97 302.17 437.23 301.47Q437.49 300.77 437.49 299.91Q437.49 299.06 437.24 298.38Q436.98 297.69 436.46 297.29Q435.95 296.89 435.17 296.89Q434.42 296.89 433.9 297.27Q433.39 297.65 433.13 298.33Q432.87 299 432.87 299.91Q432.87 300.82 433.13 301.52Q433.4 302.21 433.91 302.6Q434.43 303 435.17 303ZM442.07 293.09V304H440.75V293.09ZM447.83 304.18Q446.64 304.18 445.78 303.65Q444.92 303.12 444.45 302.18Q443.99 301.23 443.99 299.97Q443.99 298.71 444.44 297.75Q444.9 296.79 445.73 296.25Q446.56 295.71 447.67 295.71Q448.32 295.71 448.96 295.93Q449.59 296.14 450.11 296.62Q450.62 297.1 450.93 297.88Q451.24 298.67 451.24 299.8V300.35H445.32Q445.35 301.14 445.64 301.71Q445.95 302.35 446.52 302.68Q447.09 303 447.83 303Q448.32 303 448.71 302.86Q449.11 302.73 449.39 302.44Q449.68 302.16 449.83 301.74L451.11 302.1Q450.92 302.71 450.46 303.18Q450.01 303.65 449.34 303.91Q448.67 304.18 447.83 304.18ZM445.33 299.24H449.9Q449.85 298.68 449.66 298.21Q449.41 297.59 448.91 297.24Q448.41 296.88 447.67 296.88Q446.93 296.88 446.41 297.24Q445.88 297.61 445.6 298.18Q445.36 298.68 445.33 299.24ZM460.57 295.81V296.94H458.89V301.88Q458.89 302.43 459.11 302.68Q459.33 302.93 459.85 302.93Q459.98 302.93 460.17 302.9Q460.36 302.87 460.53 302.84L460.8 303.96Q460.59 304.03 460.33 304.07Q460.07 304.1 459.82 304.1Q458.75 304.1 458.16 303.54Q457.57 302.98 457.57 301.98V296.94H456.34V295.81H457.57V293.86H458.89V295.81ZM462.25 304V295.81H463.57V304ZM462.92 294.47Q462.55 294.47 462.28 294.21Q462.01 293.96 462.01 293.6Q462.01 293.23 462.28 292.98Q462.55 292.73 462.92 292.73Q463.3 292.73 463.57 292.98Q463.84 293.23 463.84 293.6Q463.84 293.96 463.57 294.21Q463.3 294.47 462.92 294.47ZM465.89 304V295.81H467.17L467.18 297.31Q467.34 296.86 467.61 296.54Q467.97 296.1 468.45 295.88Q468.94 295.67 469.47 295.67Q470.36 295.67 470.92 296.21Q471.37 296.66 471.56 297.33Q471.71 296.92 471.99 296.6Q472.38 296.15 472.93 295.91Q473.48 295.67 474.13 295.67Q474.84 295.67 475.43 295.97Q476.02 296.28 476.36 296.9Q476.71 297.53 476.71 298.48V304H475.39V298.51Q475.39 297.63 474.9 297.25Q474.4 296.87 473.74 296.87Q473.19 296.87 472.79 297.1Q472.39 297.33 472.18 297.73Q471.96 298.13 471.96 298.65V304H470.64V298.38Q470.64 297.7 470.19 297.28Q469.73 296.87 469.04 296.87Q468.56 296.87 468.14 297.09Q467.72 297.31 467.46 297.75Q467.21 298.19 467.21 298.84V304ZM482.47 304.18Q481.28 304.18 480.42 303.65Q479.56 303.12 479.1 302.18Q478.63 301.23 478.63 299.97Q478.63 298.71 479.09 297.75Q479.54 296.79 480.37 296.25Q481.2 295.71 482.32 295.71Q482.97 295.71 483.6 295.93Q484.23 296.14 484.75 296.62Q485.27 297.1 485.57 297.88Q485.88 298.67 485.88 299.8V300.35H479.96Q479.99 301.14 480.28 301.71Q480.59 302.35 481.16 302.68Q481.73 303 482.48 303Q482.96 303 483.36 302.86Q483.75 302.73 484.04 302.44Q484.32 302.16 484.48 301.74L485.75 302.1Q485.56 302.71 485.11 303.18Q484.65 303.65 483.98 303.91Q483.31 304.18 482.47 304.18ZM479.97 299.24H484.54Q484.49 298.68 484.31 298.21Q484.05 297.59 483.55 297.24Q483.06 296.88 482.32 296.88Q481.58 296.88 481.05 297.24Q480.52 297.61 480.24 298.18Q480.01 298.68 479.97 299.24ZM487.55 306.63 488.2 302.48H489.71L488.56 306.63ZM498.6 304.19Q497.83 304.19 497.19 303.9Q496.56 303.6 496.19 303.04Q495.81 302.48 495.81 301.67Q495.81 300.97 496.09 300.53Q496.37 300.09 496.84 299.84Q497.3 299.58 497.86 299.46Q498.43 299.33 499 299.26Q499.73 299.17 500.19 299.11Q500.66 299.06 500.88 298.94Q501.1 298.81 501.1 298.51V298.47Q501.1 297.96 500.91 297.6Q500.72 297.25 500.34 297.06Q499.96 296.87 499.39 296.87Q498.8 296.87 498.39 297.05Q497.97 297.23 497.71 297.51Q497.45 297.78 497.32 298.07L496.05 297.65Q496.36 296.9 496.9 296.48Q497.43 296.06 498.08 295.88Q498.72 295.71 499.35 295.71Q499.76 295.71 500.29 295.81Q500.81 295.91 501.3 296.2Q501.78 296.49 502.1 297.07Q502.42 297.64 502.42 298.6V304H501.12V302.89H501.04Q500.9 303.17 500.59 303.48Q500.28 303.78 499.79 303.99Q499.3 304.19 498.6 304.19ZM498.83 303.03Q499.56 303.03 500.07 302.74Q500.57 302.45 500.84 302Q501.1 301.54 501.1 301.04V299.91Q501.02 300 500.75 300.08Q500.48 300.15 500.13 300.21Q499.78 300.27 499.46 300.31Q499.13 300.35 498.94 300.37Q498.47 300.43 498.05 300.58Q497.64 300.72 497.39 300.99Q497.14 301.27 497.14 301.74Q497.14 302.16 497.36 302.45Q497.58 302.73 497.96 302.88Q498.34 303.03 498.83 303.03ZM506.05 299.09V304H504.74V295.81H506L506.01 297.33Q506.35 296.56 506.9 296.19Q507.58 295.71 508.51 295.71Q509.34 295.71 509.96 296.05Q510.59 296.39 510.94 297.07Q511.28 297.76 511.28 298.8V304H509.96V298.91Q509.96 297.96 509.47 297.43Q508.98 296.9 508.12 296.9Q507.53 296.9 507.06 297.15Q506.6 297.41 506.32 297.9Q506.05 298.39 506.05 299.09ZM516.67 304.18Q515.65 304.18 514.86 303.66Q514.08 303.14 513.64 302.18Q513.2 301.23 513.2 299.93Q513.2 298.63 513.65 297.68Q514.09 296.73 514.87 296.22Q515.66 295.71 516.67 295.71Q517.47 295.71 517.94 295.97Q518.41 296.24 518.66 296.57Q518.91 296.9 519.05 297.12H519.15V293.09H520.47V304H519.19V302.73H519.05Q518.91 302.96 518.65 303.3Q518.39 303.64 517.92 303.91Q517.45 304.18 516.67 304.18ZM516.86 303Q517.61 303 518.12 302.6Q518.64 302.21 518.9 301.52Q519.16 300.82 519.16 299.91Q519.16 299 518.9 298.33Q518.64 297.65 518.13 297.27Q517.62 296.89 516.86 296.89Q516.09 296.89 515.57 297.29Q515.05 297.69 514.8 298.38Q514.54 299.06 514.54 299.91Q514.54 300.77 514.8 301.47Q515.06 302.17 515.58 302.58Q516.1 303 516.86 303ZM528.32 293.09V304H527V293.09ZM534.08 304.18Q532.89 304.18 532.03 303.65Q531.17 303.12 530.7 302.18Q530.24 301.23 530.24 299.97Q530.24 298.71 530.69 297.75Q531.15 296.79 531.98 296.25Q532.81 295.71 533.92 295.71Q534.57 295.71 535.21 295.93Q535.84 296.14 536.36 296.62Q536.87 297.1 537.18 297.88Q537.49 298.67 537.49 299.8V300.35H531.57Q531.6 301.14 531.89 301.71Q532.2 302.35 532.77 302.68Q533.34 303 534.08 303Q534.57 303 534.96 302.86Q535.36 302.73 535.64 302.44Q535.93 302.16 536.08 301.74L537.36 302.1Q537.17 302.71 536.71 303.18Q536.26 303.65 535.59 303.91Q534.92 304.18 534.08 304.18ZM531.58 299.24H536.15Q536.1 298.68 535.91 298.21Q535.66 297.59 535.16 297.24Q534.66 296.88 533.92 296.88Q533.18 296.88 532.66 297.24Q532.13 297.61 531.85 298.18Q531.61 298.68 531.58 299.24ZM541.67 304.19Q540.89 304.19 540.26 303.9Q539.63 303.6 539.25 303.04Q538.88 302.48 538.88 301.67Q538.88 300.97 539.16 300.53Q539.44 300.09 539.9 299.84Q540.37 299.58 540.93 299.46Q541.5 299.33 542.07 299.26Q542.8 299.17 543.26 299.11Q543.72 299.06 543.95 298.94Q544.17 298.81 544.17 298.51V298.47Q544.17 297.96 543.98 297.6Q543.79 297.25 543.41 297.06Q543.03 296.87 542.45 296.87Q541.87 296.87 541.45 297.05Q541.03 297.23 540.77 297.51Q540.51 297.78 540.38 298.07L539.11 297.65Q539.43 296.9 539.96 296.48Q540.5 296.06 541.14 295.88Q541.79 295.71 542.42 295.71Q542.83 295.71 543.35 295.81Q543.88 295.91 544.36 296.2Q544.85 296.49 545.17 297.07Q545.49 297.64 545.49 298.6V304H544.19V302.89H544.1Q543.96 303.17 543.66 303.48Q543.35 303.78 542.86 303.99Q542.37 304.19 541.67 304.19ZM541.9 303.03Q542.63 303.03 543.14 302.74Q543.64 302.45 543.91 302Q544.17 301.54 544.17 301.04V299.91Q544.09 300 543.82 300.08Q543.55 300.15 543.2 300.21Q542.85 300.27 542.52 300.31Q542.2 300.35 542.01 300.37Q541.53 300.43 541.12 300.58Q540.7 300.72 540.46 300.99Q540.21 301.27 540.21 301.74Q540.21 302.16 540.43 302.45Q540.65 302.73 541.03 302.88Q541.41 303.03 541.9 303.03ZM547.8 304V295.81H549.08V297.07H549.16Q549.39 296.45 549.97 296.07Q550.56 295.69 551.29 295.69Q551.43 295.69 551.64 295.7Q551.84 295.71 551.95 295.72V297.04Q551.9 297.03 551.66 297Q551.43 296.97 551.16 296.97Q550.58 296.97 550.11 297.21Q549.65 297.46 549.38 297.89Q549.12 298.32 549.12 298.87V304ZM554.77 299.09V304H553.45V295.81H554.72L554.72 297.33Q555.07 296.56 555.61 296.19Q556.3 295.71 557.23 295.71Q558.06 295.71 558.68 296.05Q559.3 296.39 559.65 297.07Q560 297.76 560 298.8V304H558.68V298.91Q558.68 297.96 558.18 297.43Q557.69 296.9 556.83 296.9Q556.25 296.9 555.78 297.15Q555.31 297.41 555.04 297.9Q554.77 298.39 554.77 299.09ZM562.31 304V295.81H563.63V304ZM562.98 294.47Q562.6 294.47 562.33 294.21Q562.06 293.96 562.06 293.6Q562.06 293.23 562.33 292.98Q562.6 292.73 562.98 292.73Q563.36 292.73 563.63 292.98Q563.9 293.23 563.9 293.6Q563.9 293.96 563.63 294.21Q563.36 294.47 562.98 294.47ZM567.26 299.09V304H565.94V295.81H567.21L567.22 297.33Q567.56 296.56 568.1 296.19Q568.79 295.71 569.72 295.71Q570.55 295.71 571.17 296.05Q571.8 296.39 572.14 297.07Q572.49 297.76 572.49 298.8V304H571.17V298.91Q571.17 297.96 570.68 297.43Q570.18 296.9 569.33 296.9Q568.74 296.9 568.27 297.15Q567.8 297.41 567.53 297.9Q567.26 298.39 567.26 299.09ZM578.12 307.24Q577.22 307.24 576.55 307.01Q575.89 306.78 575.45 306.4Q575.01 306.01 574.75 305.57L575.82 304.88Q576 305.11 576.26 305.4Q576.52 305.68 576.96 305.89Q577.41 306.09 578.12 306.09Q579.11 306.09 579.74 305.62Q580.37 305.15 580.37 304.14V302.5H580.25Q580.11 302.73 579.86 303.06Q579.6 303.38 579.13 303.62Q578.66 303.87 577.87 303.87Q576.89 303.87 576.1 303.4Q575.32 302.94 574.86 302.04Q574.41 301.15 574.41 299.87Q574.41 298.6 574.86 297.67Q575.3 296.73 576.09 296.22Q576.88 295.71 577.9 295.71Q578.69 295.71 579.16 295.97Q579.63 296.23 579.89 296.57Q580.15 296.9 580.28 297.12H580.41V295.81H581.69V304.21Q581.69 305.27 581.21 305.94Q580.74 306.61 579.93 306.92Q579.12 307.24 578.12 307.24ZM578.09 302.7Q578.83 302.7 579.35 302.36Q579.86 302.02 580.12 301.37Q580.39 300.73 580.39 299.84Q580.39 298.97 580.13 298.31Q579.87 297.64 579.35 297.27Q578.84 296.89 578.09 296.89Q577.31 296.89 576.79 297.29Q576.27 297.69 576.01 298.35Q575.75 299.02 575.75 299.84Q575.75 300.68 576.01 301.33Q576.28 301.97 576.8 302.33Q577.32 302.7 578.09 302.7ZM591.01 304.18Q590.16 304.18 589.51 303.93Q588.85 303.69 588.43 303.2Q588 302.72 587.86 302.02L589.11 301.71Q589.29 302.39 589.77 302.7Q590.26 303.02 590.99 303.02Q591.85 303.02 592.36 302.65Q592.87 302.29 592.87 301.78Q592.87 301.36 592.57 301.07Q592.27 300.79 591.67 300.65L590.3 300.33Q589.19 300.07 588.65 299.51Q588.11 298.96 588.11 298.1Q588.11 297.39 588.5 296.86Q588.9 296.32 589.58 296.01Q590.27 295.71 591.14 295.71Q591.98 295.71 592.57 295.96Q593.16 296.21 593.53 296.66Q593.9 297.1 594.08 297.68L592.89 297.99Q592.72 297.55 592.33 297.19Q591.94 296.83 591.15 296.83Q590.41 296.83 589.93 297.17Q589.44 297.5 589.44 298.02Q589.44 298.47 589.77 298.74Q590.1 299.02 590.82 299.19L592.05 299.48Q593.17 299.74 593.7 300.3Q594.24 300.85 594.24 301.69Q594.24 302.41 593.83 302.97Q593.42 303.53 592.7 303.85Q591.97 304.18 591.01 304.18ZM599.47 304.18Q598.36 304.18 597.52 303.65Q596.68 303.12 596.21 302.17Q595.75 301.22 595.75 299.96Q595.75 298.68 596.21 297.72Q596.68 296.76 597.52 296.24Q598.36 295.71 599.47 295.71Q600.59 295.71 601.44 296.24Q602.28 296.76 602.75 297.72Q603.22 298.68 603.22 299.96Q603.22 301.22 602.75 302.17Q602.28 303.12 601.44 303.65Q600.59 304.18 599.47 304.18ZM599.47 303Q600.3 303 600.84 302.57Q601.37 302.15 601.63 301.45Q601.88 300.76 601.88 299.96Q601.88 299.14 601.63 298.44Q601.37 297.75 600.84 297.32Q600.3 296.89 599.47 296.89Q598.65 296.89 598.13 297.32Q597.6 297.75 597.34 298.44Q597.09 299.14 597.09 299.96Q597.09 300.76 597.34 301.45Q597.6 302.15 598.13 302.57Q598.65 303 599.47 303ZM605.14 304V295.81H606.42L606.42 297.31Q606.59 296.86 606.86 296.54Q607.22 296.1 607.7 295.88Q608.19 295.67 608.72 295.67Q609.61 295.67 610.17 296.21Q610.61 296.66 610.8 297.33Q610.96 296.92 611.24 296.6Q611.62 296.15 612.18 295.91Q612.73 295.67 613.38 295.67Q614.09 295.67 614.68 295.97Q615.26 296.28 615.61 296.9Q615.96 297.53 615.96 298.48V304H614.64V298.51Q614.64 297.63 614.14 297.25Q613.65 296.87 612.99 296.87Q612.44 296.87 612.04 297.1Q611.64 297.33 611.42 297.73Q611.21 298.13 611.21 298.65V304H609.89V298.38Q609.89 297.7 609.43 297.28Q608.98 296.87 608.28 296.87Q607.81 296.87 607.39 297.09Q606.97 297.31 606.71 297.75Q606.45 298.19 606.45 298.84V304ZM621.72 304.18Q620.53 304.18 619.67 303.65Q618.81 303.12 618.34 302.18Q617.88 301.23 617.88 299.97Q617.88 298.71 618.33 297.75Q618.79 296.79 619.62 296.25Q620.45 295.71 621.56 295.71Q622.22 295.71 622.85 295.93Q623.48 296.14 624 296.62Q624.52 297.1 624.82 297.88Q625.13 298.67 625.13 299.8V300.35H619.21Q619.24 301.14 619.53 301.71Q619.84 302.35 620.41 302.68Q620.98 303 621.72 303Q622.21 303 622.6 302.86Q623 302.73 623.28 302.44Q623.57 302.16 623.72 301.74L625 302.1Q624.81 302.71 624.35 303.18Q623.9 303.65 623.23 303.91Q622.56 304.18 621.72 304.18ZM619.22 299.24H623.79Q623.74 298.68 623.56 298.21Q623.3 297.59 622.8 297.24Q622.3 296.88 621.56 296.88Q620.82 296.88 620.3 297.24Q619.77 297.61 619.49 298.18Q619.26 298.68 619.22 299.24ZM630.24 295.81V296.94H628.56V301.88Q628.56 302.43 628.78 302.68Q629.01 302.93 629.53 302.93Q629.65 302.93 629.84 302.9Q630.04 302.87 630.2 302.84L630.47 303.96Q630.26 304.03 630 304.07Q629.74 304.1 629.49 304.1Q628.43 304.1 627.83 303.54Q627.24 302.98 627.24 301.98V296.94H626.01V295.81H627.24V293.86H628.56V295.81ZM633.25 299.09V304H631.93V293.09H633.25V297.23Q633.58 296.53 634.09 296.19Q634.78 295.71 635.71 295.71Q636.53 295.71 637.16 296.05Q637.79 296.39 638.13 297.07Q638.48 297.76 638.48 298.8V304H637.16V298.91Q637.16 297.96 636.66 297.43Q636.17 296.9 635.31 296.9Q634.73 296.9 634.26 297.15Q633.79 297.41 633.52 297.9Q633.25 298.39 633.25 299.09ZM640.8 304V295.81H642.12V304ZM641.46 294.47Q641.09 294.47 640.82 294.21Q640.55 293.96 640.55 293.6Q640.55 293.23 640.82 292.98Q641.09 292.73 641.46 292.73Q641.84 292.73 642.12 292.98Q642.39 293.23 642.39 293.6Q642.39 293.96 642.12 294.21Q641.84 294.47 641.46 294.47ZM645.75 299.09V304H644.43V295.81H645.7L645.7 297.33Q646.05 296.56 646.59 296.19Q647.28 295.71 648.21 295.71Q649.04 295.71 649.66 296.05Q650.28 296.39 650.63 297.07Q650.98 297.76 650.98 298.8V304H649.66V298.91Q649.66 297.96 649.17 297.43Q648.67 296.9 647.81 296.9Q647.23 296.9 646.76 297.15Q646.29 297.41 646.02 297.9Q645.75 298.39 645.75 299.09ZM656.61 307.24Q655.7 307.24 655.04 307.01Q654.38 306.78 653.94 306.4Q653.5 306.01 653.24 305.57L654.31 304.88Q654.49 305.11 654.75 305.4Q655.01 305.68 655.45 305.89Q655.89 306.09 656.61 306.09Q657.59 306.09 658.23 305.62Q658.86 305.15 658.86 304.14V302.5H658.73Q658.59 302.73 658.34 303.06Q658.09 303.38 657.62 303.62Q657.14 303.87 656.35 303.87Q655.37 303.87 654.59 303.4Q653.8 302.94 653.35 302.04Q652.9 301.15 652.9 299.87Q652.9 298.6 653.34 297.67Q653.79 296.73 654.58 296.22Q655.36 295.71 656.38 295.71Q657.17 295.71 657.65 295.97Q658.12 296.23 658.38 296.57Q658.63 296.9 658.77 297.12H658.9V295.81H660.18V304.21Q660.18 305.27 659.7 305.94Q659.22 306.61 658.42 306.92Q657.61 307.24 656.61 307.24ZM656.57 302.7Q657.32 302.7 657.83 302.36Q658.35 302.02 658.61 301.37Q658.87 300.73 658.87 299.84Q658.87 298.97 658.61 298.31Q658.35 297.64 657.84 297.27Q657.33 296.89 656.57 296.89Q655.8 296.89 655.28 297.29Q654.76 297.69 654.5 298.35Q654.24 299.02 654.24 299.84Q654.24 300.68 654.5 301.33Q654.76 301.97 655.28 302.33Q655.8 302.7 656.57 302.7ZM668.03 299.09V304H666.71V295.81H667.98L667.98 297.33Q668.33 296.56 668.87 296.19Q669.56 295.71 670.49 295.71Q671.32 295.71 671.94 296.05Q672.56 296.39 672.91 297.07Q673.26 297.76 673.26 298.8V304H671.94V298.91Q671.94 297.96 671.45 297.43Q670.95 296.9 670.09 296.9Q669.51 296.9 669.04 297.15Q668.57 297.41 668.3 297.9Q668.03 298.39 668.03 299.09ZM679.01 304.18Q677.83 304.18 676.97 303.65Q676.11 303.12 675.64 302.18Q675.18 301.23 675.18 299.97Q675.18 298.71 675.63 297.75Q676.09 296.79 676.92 296.25Q677.75 295.71 678.86 295.71Q679.51 295.71 680.15 295.93Q680.78 296.14 681.3 296.62Q681.81 297.1 682.12 297.88Q682.43 298.67 682.43 299.8V300.35H676.51Q676.54 301.14 676.82 301.71Q677.14 302.35 677.71 302.68Q678.28 303 679.02 303Q679.51 303 679.9 302.86Q680.3 302.73 680.58 302.44Q680.87 302.16 681.02 301.74L682.3 302.1Q682.11 302.71 681.65 303.18Q681.2 303.65 680.53 303.91Q679.86 304.18 679.01 304.18ZM676.52 299.24H681.09Q681.04 298.68 680.85 298.21Q680.6 297.59 680.1 297.24Q679.6 296.88 678.86 296.88Q678.12 296.88 677.59 297.24Q677.07 297.61 676.79 298.18Q676.55 298.68 676.52 299.24ZM686.16 304 683.67 295.81H685.07L686.07 299.39Q686.27 300.12 686.51 301.04Q686.68 301.74 686.86 302.58Q687.02 301.78 687.19 301.09Q687.42 300.16 687.63 299.39L688.61 295.81H690.02L690.98 299.39Q691.19 300.14 691.41 301.06Q691.58 301.76 691.74 302.56Q691.91 301.77 692.09 301.08Q692.32 300.15 692.53 299.39L693.52 295.81H694.92L692.44 304H691.13L690.07 300.29Q689.91 299.73 689.75 299.14Q689.6 298.56 689.45 297.94Q689.38 297.63 689.3 297.31Q689.22 297.62 689.15 297.94Q689 298.56 688.84 299.15Q688.69 299.74 688.53 300.29L687.47 304ZM704.25 304.18Q703.07 304.18 702.21 303.65Q701.35 303.12 700.88 302.18Q700.42 301.23 700.42 299.97Q700.42 298.71 700.87 297.75Q701.32 296.79 702.16 296.25Q702.99 295.71 704.1 295.71Q704.75 295.71 705.39 295.93Q706.02 296.14 706.54 296.62Q707.05 297.1 707.36 297.88Q707.67 298.67 707.67 299.8V300.35H701.75Q701.78 301.14 702.06 301.71Q702.38 302.35 702.95 302.68Q703.51 303 704.26 303Q704.74 303 705.14 302.86Q705.54 302.73 705.82 302.44Q706.11 302.16 706.26 301.74L707.54 302.1Q707.34 302.71 706.89 303.18Q706.44 303.65 705.77 303.91Q705.1 304.18 704.25 304.18ZM701.76 299.24H706.33Q706.28 298.68 706.09 298.21Q705.84 297.59 705.34 297.24Q704.84 296.88 704.1 296.88Q703.36 296.88 702.83 297.24Q702.31 297.61 702.03 298.18Q701.79 298.68 701.76 299.24ZM711.92 304 708.8 295.81H710.24L711.98 300.67Q712.26 301.42 712.46 302.17Q712.54 302.48 712.62 302.79Q712.7 302.48 712.79 302.17Q712.98 301.42 713.25 300.67L714.99 295.81H716.43L713.31 304ZM721.43 304.18Q720.24 304.18 719.38 303.65Q718.52 303.12 718.06 302.18Q717.59 301.23 717.59 299.97Q717.59 298.71 718.05 297.75Q718.5 296.79 719.33 296.25Q720.16 295.71 721.28 295.71Q721.93 295.71 722.56 295.93Q723.19 296.14 723.71 296.62Q724.23 297.1 724.53 297.88Q724.84 298.67 724.84 299.8V300.35H718.92Q718.95 301.14 719.24 301.71Q719.55 302.35 720.12 302.68Q720.69 303 721.44 303Q721.92 303 722.32 302.86Q722.71 302.73 723 302.44Q723.28 302.16 723.44 301.74L724.71 302.1Q724.52 302.71 724.07 303.18Q723.61 303.65 722.94 303.91Q722.27 304.18 721.43 304.18ZM718.93 299.24H723.5Q723.45 298.68 723.27 298.21Q723.01 297.59 722.51 297.24Q722.02 296.88 721.28 296.88Q720.54 296.88 720.01 297.24Q719.48 297.61 719.2 298.18Q718.97 298.68 718.93 299.24ZM726.73 304V295.81H728.01V297.07H728.09Q728.32 296.45 728.9 296.07Q729.49 295.69 730.22 295.69Q730.36 295.69 730.57 295.7Q730.77 295.71 730.89 295.72V297.04Q730.83 297.03 730.59 297Q730.36 296.97 730.09 296.97Q729.51 296.97 729.04 297.21Q728.58 297.46 728.31 297.89Q728.05 298.32 728.05 298.87V304ZM732.25 306.97 732.58 305.82 732.72 305.86Q733.13 305.96 733.46 305.92Q733.79 305.87 734.05 305.59Q734.31 305.31 734.51 304.73L734.74 304.04L731.62 295.81H733.06L734.8 300.67Q735.08 301.43 735.27 302.18Q735.35 302.48 735.43 302.79Q735.51 302.48 735.6 302.17Q735.79 301.42 736.06 300.67L737.82 295.81H739.26L735.66 305.22Q735.41 305.88 735.06 306.3Q734.72 306.72 734.25 306.92Q733.79 307.12 733.21 307.12Q732.86 307.12 732.61 307.07Q732.35 307.02 732.25 306.97ZM748.1 304.18Q747.08 304.18 746.3 303.66Q745.51 303.14 745.07 302.18Q744.63 301.23 744.63 299.93Q744.63 298.63 745.08 297.68Q745.52 296.73 746.3 296.22Q747.09 295.71 748.1 295.71Q748.9 295.71 749.37 295.97Q749.84 296.24 750.09 296.57Q750.35 296.9 750.48 297.12H750.58V293.09H751.9V304H750.62V302.73H750.48Q750.35 302.96 750.09 303.3Q749.83 303.64 749.35 303.91Q748.88 304.18 748.1 304.18ZM748.29 303Q749.04 303 749.55 302.6Q750.07 302.21 750.33 301.52Q750.59 300.82 750.59 299.91Q750.59 299 750.33 298.33Q750.07 297.65 749.56 297.27Q749.05 296.89 748.29 296.89Q747.52 296.89 747 297.29Q746.49 297.69 746.23 298.38Q745.97 299.06 745.97 299.91Q745.97 300.77 746.23 301.47Q746.49 302.17 747.01 302.58Q747.53 303 748.29 303ZM756.51 304.19Q755.73 304.19 755.1 303.9Q754.46 303.6 754.09 303.04Q753.71 302.48 753.71 301.67Q753.71 300.97 753.99 300.53Q754.27 300.09 754.74 299.84Q755.2 299.58 755.77 299.46Q756.33 299.33 756.9 299.26Q757.63 299.17 758.09 299.11Q758.56 299.06 758.78 298.94Q759 298.81 759 298.51V298.47Q759 297.96 758.81 297.6Q758.62 297.25 758.24 297.06Q757.86 296.87 757.29 296.87Q756.7 296.87 756.29 297.05Q755.87 297.23 755.61 297.51Q755.35 297.78 755.22 298.07L753.95 297.65Q754.26 296.9 754.8 296.48Q755.33 296.06 755.98 295.88Q756.62 295.71 757.25 295.71Q757.66 295.71 758.19 295.81Q758.71 295.91 759.2 296.2Q759.68 296.49 760 297.07Q760.32 297.64 760.32 298.6V304H759.02V302.89H758.94Q758.8 303.17 758.49 303.48Q758.18 303.78 757.69 303.99Q757.2 304.19 756.51 304.19ZM756.73 303.03Q757.46 303.03 757.97 302.74Q758.48 302.45 758.74 302Q759 301.54 759 301.04V299.91Q758.92 300 758.65 300.08Q758.38 300.15 758.03 300.21Q757.68 300.27 757.36 300.31Q757.03 300.35 756.84 300.37Q756.37 300.43 755.95 300.58Q755.54 300.72 755.29 300.99Q755.04 301.27 755.04 301.74Q755.04 302.16 755.26 302.45Q755.48 302.73 755.86 302.88Q756.24 303.03 756.73 303.03ZM762.5 306.97 762.84 305.82 762.98 305.86Q763.38 305.96 763.71 305.92Q764.04 305.87 764.31 305.59Q764.57 305.31 764.77 304.73L765 304.04L761.87 295.81H763.32L765.06 300.67Q765.34 301.43 765.53 302.18Q765.61 302.48 765.69 302.79Q765.77 302.48 765.86 302.17Q766.05 301.42 766.32 300.67L768.08 295.81H769.51L765.92 305.22Q765.67 305.88 765.32 306.3Q764.97 306.72 764.51 306.92Q764.05 307.12 763.47 307.12Q763.12 307.12 762.86 307.07Q762.61 307.02 762.5 306.97ZM772.07 304.1Q771.66 304.1 771.37 303.81Q771.08 303.52 771.08 303.11Q771.08 302.7 771.37 302.41Q771.66 302.12 772.07 302.12Q772.48 302.12 772.77 302.41Q773.06 302.7 773.06 303.11Q773.06 303.52 772.77 303.81Q772.48 304.1 772.07 304.1Z" fill="#9aa1cc" opacity="1"/><rect x="376.7" y="328" width="63.6" height="28" rx="14" fill="url(#card)"/><rect x="377.2" y="328.5" width="62.6" height="27" rx="13" stroke="url(#edge)" stroke-width="1.1"/><rect x="390.7" y="328.5" width="35.6" height="1" fill="url(#hl)"/><path d="M397.47 346.38 395 337.28H396.46L397.78 342.49Q397.9 342.98 398 343.49Q398.11 344.01 398.21 344.54Q398.25 344.79 398.3 345.04Q398.34 344.79 398.39 344.54Q398.5 344.01 398.61 343.49Q398.72 342.98 398.84 342.49L400.19 337.28H401.72L403.06 342.49Q403.18 342.98 403.29 343.49Q403.4 344.01 403.51 344.54Q403.56 344.78 403.61 345.01L403.69 344.54Q403.79 344.01 403.9 343.49Q404.01 342.98 404.12 342.49L405.44 337.28H406.91L404.44 346.38H402.83L401.38 340.99Q401.22 340.35 401.08 339.61Q401.01 339.26 400.94 338.89Q400.89 339.23 400.83 339.55Q400.71 340.28 400.52 340.99L399.08 346.38ZM411.07 346.52Q410.06 346.52 409.33 346.08Q408.6 345.65 408.2 344.86Q407.81 344.07 407.81 343.01Q407.81 341.96 408.2 341.16Q408.59 340.36 409.29 339.91Q410 339.47 410.95 339.47Q411.54 339.47 412.08 339.66Q412.63 339.85 413.06 340.26Q413.49 340.67 413.75 341.32Q414 341.97 414 342.9V343.37H409.16Q409.18 343.99 409.4 344.42Q409.64 344.91 410.07 345.16Q410.51 345.4 411.08 345.4Q411.46 345.4 411.77 345.3Q412.07 345.19 412.29 344.97Q412.52 344.76 412.63 344.44L413.9 344.74Q413.73 345.26 413.34 345.67Q412.96 346.07 412.38 346.29Q411.8 346.52 411.07 346.52ZM409.17 342.37H412.67Q412.63 341.94 412.49 341.59Q412.29 341.11 411.91 340.85Q411.53 340.58 410.95 340.58Q410.39 340.58 409.98 340.85Q409.58 341.13 409.37 341.57Q409.2 341.94 409.17 342.37ZM418.86 346.51Q418.24 346.51 417.85 346.3Q417.45 346.09 417.23 345.81Q417.01 345.53 416.89 345.31H416.78V346.38H415.47V337.28H416.81V340.66H416.89Q417.01 340.45 417.23 340.17Q417.44 339.89 417.83 339.68Q418.22 339.47 418.86 339.47Q419.68 339.47 420.32 339.88Q420.96 340.3 421.34 341.08Q421.71 341.87 421.71 342.98Q421.71 344.08 421.34 344.87Q420.98 345.66 420.33 346.09Q419.69 346.51 418.86 346.51ZM418.56 345.37Q419.14 345.37 419.54 345.05Q419.94 344.73 420.14 344.19Q420.33 343.65 420.33 342.97Q420.33 342.3 420.14 341.76Q419.94 341.23 419.54 340.92Q419.15 340.61 418.56 340.61Q417.99 340.61 417.59 340.9Q417.19 341.2 416.99 341.73Q416.79 342.26 416.79 342.97Q416.79 343.68 416.99 344.22Q417.2 344.76 417.59 345.06Q417.99 345.37 418.56 345.37Z" fill="#c9ccf0" opacity="1"/><rect x="452.3" y="328" width="76.3" height="28" rx="14" fill="url(#card)"/><rect x="452.8" y="328.5" width="75.3" height="27" rx="13" stroke="url(#edge)" stroke-width="1.1"/><rect x="466.3" y="328.5" width="48.3" height="1" fill="url(#hl)"/><path d="M471.3 346.38V337.28H473.35L475.34 342.5Q475.42 342.73 475.53 343.09Q475.63 343.44 475.75 343.85Q475.87 344.27 475.97 344.67Q475.99 344.75 476.01 344.82Q476.03 344.76 476.04 344.69Q476.15 344.29 476.26 343.88Q476.38 343.46 476.49 343.1Q476.6 342.73 476.68 342.5L478.64 337.28H480.7V346.38H479.32V341.48Q479.32 341.2 479.32 340.81Q479.33 340.42 479.34 339.98Q479.35 339.55 479.36 339.1Q479.36 338.86 479.36 338.64Q479.29 338.9 479.21 339.16Q479.06 339.64 478.93 340.08Q478.79 340.52 478.67 340.88Q478.54 341.24 478.45 341.48L476.59 346.38H475.4L473.52 341.48Q473.43 341.25 473.31 340.89Q473.19 340.53 473.05 340.1Q472.91 339.66 472.76 339.19Q472.68 338.93 472.6 338.68Q472.61 338.86 472.61 339.05Q472.62 339.49 472.63 339.94Q472.64 340.38 472.65 340.78Q472.66 341.18 472.66 341.48V346.38ZM485.47 346.52Q484.52 346.52 483.8 346.08Q483.08 345.64 482.68 344.84Q482.29 344.05 482.29 343Q482.29 341.94 482.68 341.14Q483.08 340.34 483.8 339.91Q484.52 339.47 485.47 339.47Q486.44 339.47 487.16 339.91Q487.87 340.34 488.27 341.14Q488.67 341.94 488.67 343Q488.67 344.05 488.27 344.84Q487.87 345.64 487.16 346.08Q486.44 346.52 485.47 346.52ZM485.47 345.38Q486.1 345.38 486.5 345.05Q486.91 344.73 487.11 344.19Q487.3 343.65 487.3 343Q487.3 342.35 487.11 341.8Q486.91 341.25 486.5 340.93Q486.1 340.6 485.47 340.6Q484.86 340.6 484.45 340.93Q484.05 341.25 483.85 341.8Q483.65 342.34 483.65 343Q483.65 343.65 483.85 344.19Q484.05 344.73 484.45 345.05Q484.86 345.38 485.47 345.38ZM493.54 346.51Q492.93 346.51 492.53 346.3Q492.14 346.09 491.92 345.81Q491.69 345.53 491.57 345.31H491.46V346.38H490.16V337.28H491.5V340.66H491.57Q491.69 340.45 491.91 340.17Q492.13 339.89 492.51 339.68Q492.9 339.47 493.54 339.47Q494.36 339.47 495 339.88Q495.65 340.3 496.02 341.08Q496.39 341.87 496.39 342.98Q496.39 344.08 496.03 344.87Q495.66 345.66 495.02 346.09Q494.37 346.51 493.54 346.51ZM493.24 345.37Q493.83 345.37 494.23 345.05Q494.62 344.73 494.82 344.19Q495.02 343.65 495.02 342.97Q495.02 342.3 494.82 341.76Q494.62 341.23 494.23 340.92Q493.84 340.61 493.24 340.61Q492.67 340.61 492.27 340.9Q491.88 341.2 491.67 341.73Q491.47 342.26 491.47 342.97Q491.47 343.68 491.68 344.22Q491.88 344.76 492.28 345.06Q492.68 345.37 493.24 345.37ZM497.88 346.38V339.55H499.22V346.38ZM498.56 338.51Q498.21 338.51 497.96 338.28Q497.72 338.04 497.72 337.71Q497.72 337.38 497.96 337.15Q498.21 336.91 498.56 336.91Q498.91 336.91 499.16 337.15Q499.41 337.38 499.41 337.71Q499.41 338.04 499.16 338.28Q498.91 338.51 498.56 338.51ZM502.37 337.28V346.38H501.03V337.28ZM507.12 346.52Q506.12 346.52 505.38 346.08Q504.65 345.65 504.26 344.86Q503.86 344.07 503.86 343.01Q503.86 341.96 504.25 341.16Q504.64 340.36 505.35 339.91Q506.05 339.47 507.01 339.47Q507.59 339.47 508.14 339.66Q508.68 339.85 509.11 340.26Q509.55 340.67 509.8 341.32Q510.05 341.97 510.05 342.9V343.37H505.21Q505.24 343.99 505.46 344.42Q505.69 344.91 506.13 345.16Q506.56 345.4 507.14 345.4Q507.51 345.4 507.82 345.3Q508.12 345.19 508.35 344.97Q508.57 344.76 508.69 344.44L509.95 344.74Q509.78 345.26 509.4 345.67Q509.01 346.07 508.43 346.29Q507.86 346.52 507.12 346.52ZM505.22 342.37H508.72Q508.68 341.94 508.54 341.59Q508.34 341.11 507.96 340.85Q507.58 340.58 507.01 340.58Q506.44 340.58 506.04 340.85Q505.63 341.13 505.43 341.57Q505.25 341.94 505.22 342.37Z" fill="#c9ccf0" opacity="1"/><rect x="540.6" y="328" width="82.7" height="28" rx="14" fill="url(#card)"/><rect x="541.1" y="328.5" width="81.7" height="27" rx="13" stroke="url(#edge)" stroke-width="1.1"/><rect x="554.6" y="328.5" width="54.7" height="1" fill="url(#hl)"/><path d="M562.68 346.53Q561.66 346.53 560.91 346.2Q560.16 345.88 559.73 345.28Q559.31 344.68 559.27 343.85H560.66Q560.71 344.34 560.99 344.67Q561.26 344.99 561.71 345.15Q562.15 345.31 562.67 345.31Q563.25 345.31 563.7 345.13Q564.15 344.95 564.41 344.61Q564.67 344.28 564.67 343.84Q564.67 343.45 564.45 343.19Q564.22 342.94 563.83 342.77Q563.44 342.6 562.95 342.47L561.89 342.18Q560.77 341.88 560.14 341.3Q559.52 340.71 559.52 339.78Q559.52 338.99 559.94 338.4Q560.37 337.81 561.1 337.49Q561.82 337.16 562.74 337.16Q563.67 337.16 564.38 337.49Q565.1 337.81 565.5 338.38Q565.91 338.95 565.93 339.67H564.57Q564.5 339.05 563.99 338.71Q563.48 338.37 562.71 338.37Q562.16 338.37 561.75 338.54Q561.35 338.71 561.13 339.01Q560.9 339.31 560.9 339.7Q560.9 340.13 561.17 340.4Q561.43 340.66 561.82 340.82Q562.2 340.97 562.54 341.06L563.43 341.3Q563.86 341.41 564.32 341.59Q564.78 341.78 565.18 342.08Q565.57 342.37 565.81 342.81Q566.05 343.24 566.05 343.86Q566.05 344.63 565.65 345.23Q565.25 345.84 564.5 346.18Q563.75 346.53 562.68 346.53ZM570.52 339.55V340.64H569.15V344.53Q569.15 344.94 569.33 345.13Q569.5 345.33 569.9 345.33Q570 345.33 570.17 345.3Q570.34 345.28 570.47 345.25L570.71 346.33Q570.49 346.4 570.25 346.43Q570 346.47 569.77 346.47Q568.84 346.47 568.32 345.99Q567.81 345.51 567.81 344.64V340.64H566.82V339.55H567.81V337.93H569.15V339.55ZM574.18 346.46Q573.48 346.46 572.96 346.17Q572.43 345.87 572.14 345.3Q571.85 344.73 571.85 343.88V339.55H573.2V343.72Q573.2 344.46 573.58 344.87Q573.97 345.29 574.64 345.29Q575.09 345.29 575.45 345.09Q575.81 344.89 576.02 344.51Q576.22 344.13 576.22 343.59V339.55H577.57V346.38H576.28L576.28 345.04Q576 345.71 575.53 346.05Q574.96 346.46 574.18 346.46ZM581.91 346.51Q581.08 346.51 580.43 346.09Q579.79 345.66 579.42 344.87Q579.05 344.08 579.05 342.98Q579.05 341.87 579.43 341.08Q579.8 340.3 580.45 339.88Q581.09 339.47 581.91 339.47Q582.55 339.47 582.93 339.68Q583.32 339.89 583.54 340.17Q583.76 340.45 583.88 340.66H583.95V337.28H585.29V346.38H583.99V345.31H583.88Q583.76 345.53 583.53 345.81Q583.31 346.09 582.92 346.3Q582.53 346.51 581.91 346.51ZM582.2 345.37Q582.78 345.37 583.17 345.06Q583.57 344.76 583.77 344.22Q583.97 343.68 583.97 342.97Q583.97 342.26 583.77 341.73Q583.57 341.2 583.18 340.9Q582.78 340.61 582.2 340.61Q581.61 340.61 581.22 340.92Q580.82 341.23 580.63 341.76Q580.43 342.3 580.43 342.97Q580.43 343.65 580.63 344.19Q580.83 344.73 581.23 345.05Q581.62 345.37 582.2 345.37ZM590.04 346.52Q589.03 346.52 588.3 346.08Q587.57 345.65 587.18 344.86Q586.78 344.07 586.78 343.01Q586.78 341.96 587.17 341.16Q587.56 340.36 588.26 339.91Q588.97 339.47 589.93 339.47Q590.51 339.47 591.05 339.66Q591.6 339.85 592.03 340.26Q592.46 340.67 592.72 341.32Q592.97 341.97 592.97 342.9V343.37H588.13Q588.16 343.99 588.37 344.42Q588.61 344.91 589.05 345.16Q589.48 345.4 590.05 345.4Q590.43 345.4 590.74 345.3Q591.04 345.19 591.26 344.97Q591.49 344.76 591.6 344.44L592.87 344.74Q592.7 345.26 592.31 345.67Q591.93 346.07 591.35 346.29Q590.77 346.52 590.04 346.52ZM588.14 342.37H591.64Q591.6 341.94 591.46 341.59Q591.26 341.11 590.88 340.85Q590.5 340.58 589.93 340.58Q589.36 340.58 588.95 340.85Q588.55 341.13 588.34 341.57Q588.17 341.94 588.14 342.37ZM595.78 342.33V346.38H594.44V339.55H595.72L595.74 340.86Q596.02 340.22 596.46 339.89Q597.03 339.47 597.84 339.47Q598.53 339.47 599.05 339.76Q599.57 340.05 599.86 340.62Q600.15 341.19 600.15 342.04V346.38H598.81V342.21Q598.81 341.47 598.43 341.05Q598.04 340.64 597.37 340.64Q596.92 340.64 596.56 340.84Q596.2 341.03 595.99 341.41Q595.78 341.79 595.78 342.33ZM604.88 339.55V340.64H603.52V344.53Q603.52 344.94 603.69 345.13Q603.87 345.33 604.26 345.33Q604.37 345.33 604.54 345.3Q604.71 345.28 604.83 345.25L605.07 346.33Q604.85 346.4 604.61 346.43Q604.37 346.47 604.13 346.47Q603.2 346.47 602.69 345.99Q602.17 345.51 602.17 344.64V340.64H601.18V339.55H602.17V337.93H603.52V339.55Z" fill="#c9ccf0" opacity="1"/></g></svg>